<svg width="24" height="24" viewBox="0 0 24 24" fill="none" xmlns="http://www.w3.org/2000/svg">
<path d="M12.0004 0C6.7235 0 2.3999 4.01352 2.3999 8.9112C2.3999 10.8091 3.05126 12.5722 4.15358 14.0222L10.8287 23.232C11.7637 24.3689 12.3849 24.1534 13.1622 23.1725L20.5257 13.0404C20.6745 12.7898 20.7906 12.5234 20.8924 12.2508C21.3467 11.2178 21.5997 10.0908 21.5997 8.9112C21.5999 4.01352 17.2773 0 12.0004 0ZM11.9999 3.1152C15.4432 3.1152 18.2399 5.91216 18.2399 9.3552C18.2399 12.7982 15.4432 15.5952 11.9999 15.5952C8.55662 15.5952 5.7599 12.7985 5.7599 9.3552C5.7599 5.91192 8.55662 3.1152 11.9999 3.1152ZM11.9999 3.65256C11.853 3.65256 11.7078 3.65976 11.5641 3.6708C11.8084 3.6744 12.0517 3.68688 12.291 3.7332C12.2989 3.9936 12.357 4.48032 11.848 4.4628C11.4292 4.48656 11.0317 5.4372 10.7961 4.7508C10.8237 4.39872 11.4297 3.68928 10.6977 3.94728C10.5417 4.1724 10.5829 4.59048 10.2942 4.54128C10.1915 4.91184 9.90206 4.69056 9.8447 4.53C9.70574 4.61136 9.9479 4.81968 9.79262 4.9308C10.2419 4.62864 9.82958 5.30904 10.0864 5.484C9.8411 5.71944 10.2796 6.3216 9.76214 6.1692C9.28526 6.09312 10.1332 5.56728 9.54926 5.81808C9.18206 5.90064 9.2015 6.11016 9.47606 6.16536C9.22958 6.39672 8.9159 6.4092 8.76974 6.30504C8.38417 6.54961 8.03416 6.84616 7.72958 7.18632C7.27694 7.20792 7.37918 8.12448 7.1615 8.03112C7.1375 7.75008 7.23374 7.29672 6.94502 7.36224C6.63542 7.26024 6.43862 8.14536 6.56606 8.37048C6.95678 7.89624 6.59246 8.71248 6.68702 8.8716C6.9155 9.21912 6.53654 9.83952 7.07702 9.95904C7.26854 9.58824 7.4471 9.9252 7.48958 9.88032C7.66574 9.84912 7.79054 10.2835 8.10638 10.225C8.47238 10.1866 8.2919 10.9061 8.79134 10.9858C9.40094 11.1622 9.33758 11.9796 10.0091 12.0811C10.4061 12.3137 11.5182 12.4152 11.1697 13.0538C10.6497 13.2682 10.983 14.2154 10.2172 14.0302C9.97598 14.0998 9.93278 14.4204 9.64766 14.465H9.47726C10.2612 14.8546 11.1245 15.0576 11.9999 15.0581C13.3343 15.0581 14.5583 14.5975 15.5291 13.8314L15.5586 13.7254L15.5466 13.7273C16.0113 13.3723 15.9402 12.6929 16.2988 12.2546C16.4373 11.7766 15.9479 11.435 16.2285 10.9932C15.9849 11.0225 15.5541 10.7318 15.2845 11.1281C14.9766 11.1322 14.6776 11.4854 14.3915 11.3009C14.0111 11.0753 13.5748 10.8115 13.467 10.3505C13.5133 9.99096 13.4029 9.53016 13.437 9.1968C13.6072 8.62008 14.0658 8.274 14.1604 7.704C14.1995 7.66944 14.5314 7.41 14.5451 7.3992C14.9495 7.29456 15.5001 6.6456 15.7415 7.296C15.8238 7.35576 16.3746 7.6332 16.3249 7.41432C16.3386 7.07208 17.2506 7.25784 16.7821 6.81048C16.7337 6.78168 16.5486 6.72816 16.4262 6.76224C16.3758 6.77424 16.1593 7.01352 15.9745 6.69144C15.6899 6.42648 15.9594 7.40232 15.5773 6.89808C15.9702 6.76752 15.0786 6.31056 15.2886 6.576C15.5968 7.09968 15.022 6.756 15.1259 6.39504C14.6291 6.33408 14.8705 7.26744 14.4042 7.41096L14.4136 7.41144L14.3325 7.42176L14.2072 7.43352C14.0922 7.31616 13.7567 7.30152 13.8561 6.9624C13.6449 6.59592 13.8546 6.45672 14.2288 6.49128C14.6063 6.2496 13.443 5.95968 14.1899 5.83368C13.863 5.85456 13.726 5.86728 13.6835 5.46384C13.7358 5.964 13.0895 5.65176 13.4363 5.35416C13.5683 5.26536 13.1329 5.0844 13.4989 5.02272C13.7437 5.00976 14.2266 6.00192 14.3149 5.40672C14.4815 5.3532 14.1599 5.03472 14.2367 5.01792C13.8033 5.15616 13.6768 4.39488 13.6734 4.11C13.8582 4.1172 14.043 4.0956 14.1234 4.06128C13.4482 3.7905 12.7274 3.65175 11.9999 3.65256ZM12.7883 3.73176C12.8963 3.72576 13.2611 3.85416 13.0036 3.88584L12.8831 3.8448C12.7439 3.76488 12.7391 3.7344 12.7883 3.73176ZM10.0357 4.27416C10.0045 4.27776 9.9467 4.30536 9.85478 4.37112C9.74006 4.42032 9.51038 4.72464 9.7799 4.5C9.98198 4.4664 10.1296 4.26264 10.0357 4.27416ZM14.1678 4.42272C14.1117 4.42704 14.295 4.5744 14.2081 4.43064C14.1953 4.4257 14.1816 4.42302 14.1678 4.42272ZM9.4115 4.49016C9.3635 4.4868 9.29342 4.50864 9.19478 4.56648C8.8727 4.59384 8.85614 5.30232 8.86526 5.25984C8.96078 5.19624 9.04478 5.00088 9.16814 5.0124C9.39854 4.9884 9.61862 4.50528 9.4115 4.49016ZM12.3942 4.50336C12.6265 4.49376 12.9906 4.67928 12.4859 4.74192C12.4043 4.74144 12.3148 4.7268 12.2531 4.66752C12.2099 4.55232 12.2884 4.50768 12.3942 4.50336ZM14.181 4.596C14.0841 4.58736 14.5497 4.91496 14.3531 4.6668C14.2557 4.61784 14.2033 4.59816 14.181 4.596ZM13.2093 4.77744C13.2371 4.76544 13.2885 4.92216 13.1961 4.81824C13.198 4.79208 13.2028 4.78032 13.2093 4.77744ZM13.5664 4.86336C13.5889 4.86936 13.6729 5.04288 13.5736 4.92984C13.5582 4.878 13.5592 4.8612 13.5664 4.86336ZM14.578 4.86504C14.5293 4.86528 14.5331 4.91592 14.6802 5.046C14.7232 5.2428 14.6214 5.33784 14.841 5.16048C14.8869 5.00616 14.6593 4.86456 14.578 4.86504ZM8.1743 5.5824C8.1047 5.57424 8.16614 5.89152 8.24462 5.6508C8.21318 5.60328 8.19014 5.58432 8.1743 5.5824ZM9.2711 5.72256C9.22742 5.72184 9.26846 5.82528 9.34526 5.76744C9.30998 5.73456 9.28598 5.72256 9.2711 5.72256ZM15.9937 5.7648C15.9033 5.77512 16.1929 6.38112 16.2623 6.10512C16.6295 6.04848 16.2059 5.736 16.1241 5.87064C16.0552 5.79144 16.0144 5.76216 15.9937 5.7648ZM8.18294 5.87568C8.12894 5.88768 8.09654 6.2172 8.20694 5.89248C8.19854 5.87856 8.19062 5.874 8.18294 5.87568ZM15.3412 6.20928C15.3013 6.20256 15.3313 6.24528 15.5075 6.3768C15.5627 6.36048 15.8351 6.61392 15.7715 6.4716C15.6676 6.3684 15.4074 6.22032 15.3412 6.20928ZM8.04638 6.21144C7.98806 6.19992 7.8743 6.39888 8.07374 6.2604C8.07062 6.22848 8.05982 6.21408 8.04638 6.21144ZM16.1257 6.47616C16.0953 6.48936 16.2369 6.68904 16.2261 6.5448C16.1658 6.48768 16.1361 6.47184 16.1257 6.47616ZM14.9123 6.74952C14.9857 6.738 14.9418 7.0764 14.7988 6.90936C14.8501 6.79608 14.8876 6.75336 14.9123 6.74952ZM16.4171 6.86856C16.497 6.85824 16.5659 7.08456 16.3439 6.97896C16.3626 6.90144 16.3905 6.87216 16.4171 6.86856ZM12.0995 7.19664C12.1859 7.20432 12.1698 7.34424 11.9814 7.24704C12.0304 7.20624 12.0707 7.19424 12.0995 7.19664ZM12.3601 7.28568C12.3954 7.29912 12.3256 7.42488 12.2845 7.3224C12.3244 7.2888 12.3484 7.28136 12.3601 7.28568ZM13.2981 7.8852C13.3473 7.87344 13.3252 8.04984 13.2525 7.92984C13.2717 7.90104 13.2868 7.88808 13.2981 7.8852ZM7.37078 7.93632C7.40318 7.93608 7.4747 8.17728 7.3595 8.04C7.35302 7.9632 7.35998 7.93656 7.37078 7.93632ZM7.30646 8.13072C7.3391 8.13648 7.32278 8.44584 7.25774 8.25648C7.27934 8.1612 7.29566 8.12928 7.30646 8.13096M6.97598 8.23104C7.00886 8.2344 7.05518 8.24664 7.11758 8.26944C7.23446 8.59728 7.5527 8.70336 7.4627 8.84784C7.69214 8.93952 8.0267 9.3744 7.4855 9.17976C7.12646 9.03504 7.6103 8.90568 7.1855 8.79096C7.16894 8.61264 6.74654 8.20728 6.97598 8.23104ZM13.6758 8.32152C13.7296 8.32152 13.7725 8.53872 13.6141 8.50056C13.6254 8.36664 13.6516 8.32152 13.6758 8.32152ZM7.4135 8.41896C7.43414 8.40576 7.48694 8.47752 7.4615 8.56704L7.4351 8.54928C7.40054 8.46528 7.40102 8.42688 7.4135 8.41896ZM13.2724 8.42784C13.425 8.4192 13.6965 8.54376 13.3458 8.55528H13.2277L13.2076 8.54568C13.1581 8.46336 13.2028 8.43168 13.2724 8.42784ZM6.35582 8.53776C6.31674 8.80865 6.297 9.08198 6.29678 9.35568C6.29678 11.1197 7.09598 12.6941 8.35118 13.7395L8.30798 13.6462C8.25038 13.5041 8.1671 13.3733 8.09414 13.2389C7.79678 12.7114 7.29926 12.3235 7.08518 11.7432C6.67526 11.219 7.00886 10.6558 6.92678 10.109C6.90278 9.8196 6.83126 10.2818 6.73478 9.91464C6.53558 9.5064 6.51398 8.91864 6.35582 8.53776ZM7.09382 8.85888C7.16222 8.87328 7.35998 9.09312 7.1327 9.01416C7.0583 8.8884 7.06262 8.8524 7.09382 8.85888ZM7.87334 9.19176C7.95854 9.18096 8.07254 9.41016 7.81238 9.30384C7.8191 9.2256 7.84478 9.19536 7.87334 9.19176ZM8.28806 9.62256C8.32262 9.636 8.35358 10.157 8.26142 9.9108L8.25614 9.82512C8.26406 9.6696 8.27654 9.618 8.28806 9.62256ZM12.4324 9.96936C12.4972 9.97656 12.7026 10.1102 12.4845 10.0668C12.4029 9.98928 12.4029 9.966 12.4324 9.96936ZM12.7497 10.0421C12.8085 10.0411 12.7869 10.2199 12.6961 10.0776C12.7185 10.0522 12.7362 10.0423 12.7497 10.0421ZM12.6971 10.1976C12.7873 10.1832 12.7163 10.3622 12.6076 10.2451C12.6472 10.2151 12.6765 10.201 12.6971 10.1976ZM12.5445 10.2202C12.5776 10.2238 12.5591 10.3843 12.4941 10.2845C12.5171 10.235 12.5332 10.219 12.5445 10.2202ZM15.9971 11.3208C16.0305 11.3244 16.0115 11.485 15.9467 11.3851C15.9695 11.3357 15.9861 11.3196 15.9971 11.3208Z" fill="black"/>
</svg>
