<svg width="272" height="203" viewBox="0 0 272 203" fill="none" xmlns="http://www.w3.org/2000/svg">
<g clip-path="url(#clip0_98_2824)">
<path d="M97.5665 116.828C106.888 98.4136 124.669 84.2741 143.492 85.6363C129.607 102.592 121.511 124.516 120.636 147.53C120.327 156.407 120.806 166.317 115.557 172.964C112.292 177.099 107.3 179.102 102.393 179.523C97.4846 179.943 92.5778 178.947 87.7354 177.955L86.5607 178.36C86.1135 157.184 88.245 135.243 97.5665 116.828Z" fill="#F0F0F0"/>
<path d="M143.52 86.0796C129.6 93.6046 117.732 106.172 110.446 121.499C108.871 124.813 107.53 128.328 106.945 132.045C106.36 135.764 106.768 139.303 107.899 142.835C108.933 146.064 110.324 149.232 110.641 152.687C110.975 156.329 109.782 159.734 107.634 162.436C105.007 165.742 101.478 167.791 97.9647 169.66C94.0642 171.735 89.9835 173.821 87.2208 177.694C86.8861 178.163 86.2573 177.553 86.5915 177.084C91.3981 170.346 99.6257 169.079 105.331 163.651C107.993 161.119 109.992 157.67 109.866 153.628C109.756 150.094 108.324 146.826 107.252 143.566C106.127 140.144 105.565 136.704 105.969 133.055C106.382 129.323 107.603 125.741 109.096 122.397C112.463 114.855 117.07 107.93 122.348 101.944C128.414 95.0639 135.483 89.3995 143.25 85.1962C143.731 84.9363 143.997 85.8214 143.52 86.0796Z" fill="white"/>
<path d="M112.58 116.377C110.446 114.625 108.937 112.078 108.321 109.191C107.705 106.304 108.022 103.265 109.217 100.617C109.461 100.082 110.212 100.482 109.969 101.017C108.852 103.481 108.556 106.312 109.135 108.999C109.713 111.685 111.128 114.052 113.123 115.67C113.557 116.022 113.011 116.727 112.58 116.377Z" fill="white"/>
<path d="M107.183 141.276C112.53 140.398 117.386 137.29 120.783 132.57C121.119 132.102 121.748 132.713 121.412 133.18C117.869 138.084 112.81 141.307 107.244 142.207C106.713 142.292 106.655 141.36 107.183 141.276Z" fill="white"/>
<path d="M128.825 96.2127C129.525 97.0838 130.406 97.7462 131.39 98.1402C132.374 98.5342 133.43 98.6475 134.463 98.47C134.992 98.3772 135.05 99.3089 134.524 99.4011C133.382 99.5912 132.216 99.4645 131.128 99.0319C130.04 98.5992 129.063 97.874 128.282 96.9194C128.201 96.8363 128.152 96.722 128.144 96.5998C128.136 96.4775 128.17 96.3564 128.239 96.261C128.311 96.1679 128.413 96.1105 128.523 96.1015C128.633 96.0924 128.741 96.1324 128.825 96.2127Z" fill="white"/>
<path d="M180.943 143.728C180.614 143.796 180.285 143.865 179.953 143.941C175.533 144.887 171.189 146.236 166.964 147.973C166.635 148.101 166.304 148.237 165.979 148.376C155.839 152.682 146.499 159.065 138.434 167.2C135.228 170.441 132.245 173.951 129.513 177.699C125.74 182.877 122.015 188.827 117.084 192.203C116.573 192.562 116.043 192.885 115.497 193.17L87.0917 179.938C87.0406 179.872 86.9865 179.812 86.9351 179.746L85.7794 179.276C85.9083 179.071 86.0459 178.862 86.1748 178.658C86.2492 178.539 86.3298 178.423 86.4041 178.304C86.4557 178.226 86.5076 178.148 86.5501 178.074C86.5672 178.048 86.5846 178.022 86.599 178.003C86.6416 177.929 86.6881 177.865 86.7279 177.798C87.4942 176.628 88.2691 175.462 89.0527 174.301C89.0554 174.293 89.0554 174.293 89.0644 174.289C95.0551 165.453 101.755 157.101 109.371 150.156C109.601 149.948 109.832 149.731 110.074 149.529C113.523 146.42 117.192 143.633 121.044 141.195C123.158 139.868 125.33 138.662 127.552 137.581C133.298 134.802 139.398 133.055 145.627 132.404C158.046 131.109 170.696 134.289 180.221 143.05C180.464 143.275 180.702 143.496 180.943 143.728Z" fill="#F0F0F0"/>
<path d="M180.729 144.103C165.581 140.7 149.368 142.71 135.333 150.021C132.299 151.602 129.344 153.502 126.884 156.074C124.423 158.648 122.852 161.751 121.861 165.335C120.956 168.612 120.367 172.082 118.768 175.055C117.083 178.189 114.305 180.101 111.141 180.806C107.27 181.669 103.354 180.919 99.5474 180.036C95.3206 179.056 90.944 177.962 86.6619 179.187C86.143 179.335 85.9684 178.422 86.4864 178.274C93.9367 176.144 101.185 180.696 108.651 180.219C112.134 179.997 115.579 178.595 117.645 175.282C119.452 172.386 120.061 168.809 120.952 165.482C121.888 161.988 123.285 158.861 125.563 156.221C127.894 153.52 130.789 151.486 133.774 149.826C140.506 146.08 147.897 143.666 155.32 142.455C163.852 141.063 172.533 141.32 180.988 143.216C181.511 143.333 181.249 144.22 180.729 144.103Z" fill="white"/>
<path d="M139.783 147.375C139.019 144.533 139.179 141.478 140.235 138.757C141.291 136.035 143.174 133.824 145.547 132.518C146.028 132.255 146.414 133.082 145.932 133.345C143.72 134.557 141.966 136.617 140.988 139.154C140.009 141.69 139.87 144.536 140.596 147.178C140.753 147.752 139.94 147.945 139.783 147.375Z" fill="white"/>
<path d="M122.125 163.606C126.865 166.52 132.409 167.322 137.651 165.85C138.17 165.704 138.345 166.617 137.826 166.763C132.368 168.283 126.601 167.436 121.675 164.39C121.205 164.1 121.659 163.317 122.125 163.606Z" fill="white"/>
<path d="M163.564 142.258C163.656 143.427 164.004 144.552 164.579 145.532C165.153 146.512 165.936 147.316 166.855 147.873C167.328 148.156 166.874 148.939 166.405 148.657C165.391 148.037 164.528 147.147 163.891 146.066C163.255 144.985 162.863 143.745 162.751 142.455C162.732 142.335 162.754 142.21 162.813 142.107C162.872 142.004 162.964 141.93 163.07 141.9C163.178 141.875 163.29 141.898 163.382 141.965C163.475 142.032 163.54 142.137 163.564 142.258Z" fill="white"/>
<path d="M126.833 165.557C122.855 143.956 117.882 136.755 117.882 136.755L115.983 135.1L113.698 133.107L113.709 132.851L113.167 132.644L113.04 132.533L112.832 132.354L112.798 132.394L112.727 132.476L102.39 128.53L89.2748 123.527L83.2017 114.663C82.2127 113.219 80.9393 112.052 79.4814 111.253C78.0235 110.455 76.4208 110.046 74.7988 110.06L55.4034 110.221C52.781 110.243 50.2606 111.365 48.3379 113.368L35.5896 126.648L15.7254 137.302L15.6918 137.264L15.4832 137.432L12.414 139.08L12.5407 139.82L10.641 141.359C10.641 141.359 5.66848 148.061 1.69041 168.16C0.678435 173.274 0.180304 184.245 0.000505272 197.763C-0.008526 198.447 0.103593 199.126 0.33034 199.761C0.557088 200.396 0.893941 200.974 1.32131 201.461C1.74869 201.948 2.25805 202.335 2.81979 202.599C3.38153 202.864 3.98444 203 4.59346 203H110.692L123.935 203C124.543 203 125.146 202.864 125.707 202.6C126.269 202.336 126.778 201.949 127.205 201.463C127.632 200.976 127.969 200.399 128.196 199.765C128.423 199.131 128.536 198.452 128.528 197.769C128.352 183.058 127.854 171.103 126.833 165.557Z" fill="#3F3D56"/>
<path d="M140.446 18.8376C136.318 18.8376 132.359 20.6791 129.44 23.9571C126.522 27.235 124.882 31.6808 124.882 36.3164C124.882 40.9521 126.522 45.3979 129.44 48.6758C132.359 51.9537 136.318 53.7952 140.446 53.7952H256.436C260.564 53.7952 264.522 51.9537 267.441 48.6758C270.36 45.3979 272 40.9521 272 36.3164C272 31.6808 270.36 27.235 267.441 23.9571C264.522 20.6791 260.564 18.8376 256.436 18.8376H140.446Z" fill="#E5E5E5"/>
<path d="M140.446 22.375C137.154 22.375 133.996 23.8438 131.668 26.4583C129.34 29.0729 128.032 32.6189 128.032 36.3164C128.032 40.0139 129.34 43.56 131.668 46.1745C133.996 48.789 137.154 50.2579 140.446 50.2579H256.436C259.728 50.2579 262.886 48.789 265.214 46.1745C267.542 43.56 268.85 40.0139 268.85 36.3164C268.85 32.6189 267.542 29.0729 265.214 26.4583C262.886 23.8438 259.728 22.375 256.436 22.375H140.446Z" fill="white"/>
<path d="M68.147 101.877C82.1804 101.877 93.5568 89.1011 93.5568 73.3413C93.5568 57.5815 82.1804 44.8056 68.147 44.8056C54.1135 44.8056 42.7372 57.5815 42.7372 73.3413C42.7372 89.1011 54.1135 101.877 68.147 101.877Z" fill="#9E616A"/>
<path d="M61.6467 100.48C61.5381 100.211 61.4299 99.9419 61.3219 99.6717C61.3635 99.6732 61.4047 99.6799 61.4463 99.6811L61.6467 100.48Z" fill="#2F2E41"/>
<path d="M42.0305 46.1033C43.3157 44.952 44.8177 43.8926 46.4609 43.9522C48.1039 44.0117 49.7702 45.6782 49.4298 47.4844C52.4478 41.4833 57.2516 36.8678 62.998 34.448C68.7444 32.0282 75.0662 31.9587 80.8536 34.2518C84.9374 35.8698 88.9422 39.1069 89.8803 43.8546C90.1212 45.0734 90.1729 46.4097 90.8505 47.3994C91.7048 48.6472 93.3395 48.9295 94.6855 48.4905C94.699 48.4861 94.7124 48.4817 94.7258 48.4772C94.9532 48.39 95.1986 48.3814 95.4304 48.4525C95.6622 48.5237 95.8696 48.6713 96.0259 48.8763C96.1821 49.0813 96.28 49.3343 96.3068 49.6024C96.3337 49.8705 96.2883 50.1416 96.1765 50.3804L95.021 52.8005C96.4776 53.1652 97.991 53.129 99.4325 52.6952C99.672 52.6247 99.925 52.6391 100.157 52.7364C100.389 52.8337 100.588 53.0093 100.728 53.2389C100.867 53.4686 100.94 53.741 100.936 54.019C100.932 54.297 100.852 54.5668 100.706 54.7915C96.8962 60.6661 90.5307 64.4597 84.0348 64.4151C79.418 64.3835 74.7536 62.5965 70.2604 63.7889C68.5222 64.2501 66.8979 65.1425 65.5068 66.4007C64.1158 67.6589 62.9932 69.2508 62.2214 71.0597C61.4497 72.8687 61.0483 74.8487 61.0468 76.8545C61.0453 78.8604 61.4438 80.8411 62.2129 82.6515C60.8325 80.956 58.1642 81.3574 56.7522 83.0198C55.3403 84.6823 54.9747 87.1635 55.117 89.4554C55.3346 92.9606 56.5575 96.2636 57.8467 99.4782C47.0377 99.0961 36.8141 90.581 33.3728 79.064C29.9171 67.4988 33.5388 53.7107 42.0305 46.1033Z" fill="#2F2E41"/>
<path opacity="0.2" d="M25.0098 159.036L32.1366 202.582L36.4129 203L25.0098 159.036Z" fill="black"/>
<path opacity="0.2" d="M103.514 155.752L96.3868 202.55L92.1105 203L103.514 155.752Z" fill="black"/>
<path d="M48.1093 31.4479C46.7428 32.0887 45.3169 31.3865 44.719 29.7782C44.1118 28.1454 44.6789 26.4879 46.0673 25.8368C47.4558 25.1857 48.8562 25.8897 49.4731 27.5488C50.0808 29.1831 49.5199 30.7864 48.1093 31.4479ZM45.4917 22.6229L44.4052 23.1324C44.1338 23.2582 43.8302 23.265 43.5545 23.1514C43.2789 23.0379 43.0512 22.8123 42.9165 22.5192L42.8628 22.4012C41.6937 20.0334 41.5599 17.1558 42.4671 13.8527C43.3074 10.8896 43.6565 8.80567 42.9545 6.91775C42.1429 4.73497 40.4098 4.05121 38.1997 5.04171C37.3426 5.44367 37.0698 5.43726 36.3952 6.18875C36.2485 6.35421 36.0736 6.48478 35.881 6.57269C35.6883 6.6606 35.4819 6.70405 35.274 6.70044C35.073 6.69778 34.8746 6.6497 34.6905 6.55905C34.5064 6.46841 34.3404 6.33706 34.2025 6.17284C33.9368 5.85636 33.788 5.43846 33.786 5.00351C33.7841 4.56856 33.9292 4.14899 34.192 3.82952C35.3258 2.49662 36.6933 1.44214 38.2083 0.732596C42.9568 -1.49414 45.3472 1.79332 46.4411 4.73529C47.5111 7.61287 46.9092 10.2828 45.9422 13.7406C45.1317 16.6138 45.179 18.7428 46.0995 20.8598C46.166 21.0198 46.203 21.1933 46.2082 21.3698C46.2135 21.5462 46.187 21.7221 46.1302 21.8868C46.0734 22.0515 45.9876 22.2016 45.8779 22.3281C45.7682 22.4545 45.6368 22.5548 45.4917 22.6229Z" fill="#96B23C"/>
<path d="M166.067 44.6526H142.989C142.916 44.6532 142.843 44.6375 142.775 44.6063C142.707 44.5752 142.645 44.5293 142.593 44.4713C142.541 44.4133 142.5 44.3443 142.472 44.2683C142.444 44.1923 142.429 44.1107 142.429 44.0284C142.429 43.946 142.444 43.8645 142.472 43.7885C142.5 43.7125 142.541 43.6435 142.593 43.5855C142.645 43.5275 142.707 43.4816 142.775 43.4504C142.843 43.4193 142.916 43.4036 142.989 43.4041H166.067C166.213 43.4053 166.354 43.4715 166.457 43.5885C166.561 43.7054 166.619 43.8636 166.619 44.0284C166.619 44.1932 166.561 44.3514 166.457 44.4683C166.354 44.5852 166.213 44.6515 166.067 44.6526Z" fill="#96B23C"/>
<path d="M195.342 44.8607H172.264C172.191 44.8613 172.118 44.8455 172.05 44.8144C171.983 44.7833 171.921 44.7374 171.869 44.6794C171.817 44.6213 171.776 44.5523 171.747 44.4763C171.719 44.4003 171.705 44.3188 171.705 44.2365C171.705 44.1541 171.719 44.0726 171.747 43.9966C171.776 43.9206 171.817 43.8516 171.869 43.7935C171.921 43.7355 171.983 43.6896 172.05 43.6585C172.118 43.6274 172.191 43.6116 172.264 43.6122H195.342C195.415 43.6116 195.488 43.6274 195.556 43.6585C195.624 43.6896 195.686 43.7355 195.738 43.7935C195.79 43.8516 195.831 43.9206 195.859 43.9966C195.887 44.0726 195.902 44.1541 195.902 44.2365C195.902 44.3188 195.887 44.4003 195.859 44.4763C195.831 44.5523 195.79 44.6213 195.738 44.6794C195.686 44.7374 195.624 44.7833 195.556 44.8144C195.488 44.8455 195.415 44.8613 195.342 44.8607Z" fill="#96B23C"/>
<path d="M224.617 45.0688H201.54C201.393 45.0677 201.253 45.0014 201.149 44.8845C201.046 44.7675 200.988 44.6094 200.988 44.4445C200.988 44.2797 201.046 44.1216 201.149 44.0046C201.253 43.8877 201.393 43.8214 201.54 43.8203H224.617C224.691 43.8197 224.763 43.8355 224.831 43.8666C224.899 43.8977 224.961 43.9436 225.013 44.0016C225.065 44.0596 225.106 44.1287 225.134 44.2047C225.163 44.2807 225.177 44.3622 225.177 44.4445C225.177 44.5269 225.163 44.6084 225.134 44.6844C225.106 44.7604 225.065 44.8294 225.013 44.8875C224.961 44.9455 224.899 44.9914 224.831 45.0225C224.763 45.0536 224.691 45.0693 224.617 45.0688Z" fill="#96B23C"/>
<path d="M253.893 45.2769H230.815C230.668 45.2757 230.528 45.2095 230.425 45.0925C230.321 44.9756 230.263 44.8174 230.263 44.6526C230.263 44.4878 230.321 44.3296 230.425 44.2127C230.528 44.0958 230.668 44.0295 230.815 44.0284H253.893C254.04 44.0295 254.18 44.0958 254.283 44.2127C254.387 44.3296 254.445 44.4878 254.445 44.6526C254.445 44.8174 254.387 44.9756 254.283 45.0925C254.18 45.2095 254.04 45.2757 253.893 45.2769Z" fill="#96B23C"/>
<path d="M154.477 38.9076C156.846 38.9076 158.766 36.7511 158.766 34.0908C158.766 31.4306 156.846 29.274 154.477 29.274C152.108 29.274 150.188 31.4306 150.188 34.0908C150.188 36.7511 152.108 38.9076 154.477 38.9076Z" fill="#96B23C"/>
<path d="M183.929 38.9076C186.298 38.9076 188.218 36.7511 188.218 34.0908C188.218 31.4306 186.298 29.274 183.929 29.274C181.56 29.274 179.64 31.4306 179.64 34.0908C179.64 36.7511 181.56 38.9076 183.929 38.9076Z" fill="#96B23C"/>
<path d="M213.382 38.9076C215.75 38.9076 217.671 36.7511 217.671 34.0908C217.671 31.4306 215.75 29.274 213.382 29.274C211.013 29.274 209.092 31.4306 209.092 34.0908C209.092 36.7511 211.013 38.9076 213.382 38.9076Z" fill="#96B23C"/>
<path d="M242.834 38.9076C245.203 38.9076 247.123 36.7511 247.123 34.0908C247.123 31.4306 245.203 29.274 242.834 29.274C240.465 29.274 238.545 31.4306 238.545 34.0908C238.545 36.7511 240.465 38.9076 242.834 38.9076Z" fill="#96B23C"/>
</g>
<defs>
<clipPath id="clip0_98_2824">
<rect width="272" height="203" fill="white"/>
</clipPath>
</defs>
</svg>
