<svg width="21" height="22" viewBox="0 0 21 22" fill="none" xmlns="http://www.w3.org/2000/svg">
<path d="M7.50001 20C8.29601 20.622 9.348 21 10.5 21C11.652 21 12.704 20.622 13.5 20M1.03001 13.394C0.817005 14.747 1.76801 15.686 2.93201 16.154C7.39501 17.949 13.605 17.949 18.068 16.154C19.232 15.686 20.183 14.747 19.97 13.394C19.84 12.562 19.193 11.87 18.714 11.194C18.087 10.297 18.025 9.32 18.024 8.279C18.025 4.26 14.657 1 10.5 1C6.343 1 2.97501 4.26 2.97501 8.28C2.97501 9.32 2.91301 10.298 2.28501 11.194C1.80701 11.87 1.16101 12.562 1.03001 13.394Z" stroke="#0A0A0B" stroke-width="1.5" stroke-linecap="round" stroke-linejoin="round"/>
</svg>
