<svg width="217" height="210" viewBox="0 0 217 210" fill="none" xmlns="http://www.w3.org/2000/svg">
<g clip-path="url(#clip0_574_319)">
<path d="M104.137 197.006L103.86 191.737C103.832 191.724 103.803 191.711 103.774 191.698C100.811 190.381 97.4142 192.766 98.3608 195.486C99.2513 198.044 99.8497 200.803 101.48 203.043C102.443 204.344 103.739 205.445 105.273 206.263C106.806 207.082 108.538 207.598 110.338 207.773L114.103 209.726C114.62 207.286 114.506 204.78 113.769 202.38C113.033 199.981 111.691 197.746 109.837 195.828C108.784 194.761 107.576 193.81 106.243 192.999C105.341 195.013 104.137 197.006 104.137 197.006Z" fill="#F2F2F2"/>
<path d="M70.4286 143.538C63.1802 137.205 52.6761 133.572 41.6098 133.572L41.183 133.573C33.8939 133.575 26.7349 131.937 20.4382 128.826L19.7829 128.503L20.3107 128.042C23.1677 125.538 25.5534 122.676 27.3841 119.557C26.0839 120.584 24.5332 121.357 22.8417 121.82C21.1501 122.283 19.3592 122.425 17.5955 122.236C15.7336 122.048 13.946 121.505 12.367 120.649C10.788 119.792 9.45849 118.643 8.47823 117.288C4.61045 111.971 0 104.427 0 98.6793C0.00602079 93.8212 1.20657 89.0175 3.52514 84.5743C5.8437 80.1311 9.22941 76.1459 13.4665 72.8727C16.1489 70.8234 18.2914 68.3181 19.7545 65.5202C21.2175 62.7223 21.9681 59.6945 21.9574 56.6343L21.9553 56.1988C21.9546 52.1699 22.5357 48.156 23.6856 44.2466L23.8024 43.8518L24.2818 43.866C27.3732 43.9551 30.4662 43.7356 33.497 43.2119C30.6541 42.9165 27.873 42.2897 25.2325 41.3495L24.7168 41.1727L24.8918 40.725C36.9566 34.3958 64.1902 37.6734 79.9974 7.03093C92.8149 -17.8159 138.039 29.0875 138.039 56.1988C138.039 58.9652 134.808 62.6209 137.227 64.4494C163.376 84.215 145.334 96.9073 139.645 109.679C138.295 112.709 141.222 116.035 141.222 119.314C141.222 119.87 141.205 120.444 141.172 121.02L141.122 121.906L140.25 121.415C138.525 120.457 136.926 119.346 135.481 118.1C136.98 121.024 137.687 124.196 137.549 127.382C137.411 130.567 136.431 133.686 134.683 136.509C131.942 140.891 129.291 144.029 126.803 145.833C118.832 151.612 108.557 154.594 98.0782 154.167C87.5994 153.74 77.7087 149.938 70.4286 143.538Z" fill="#E6E6E6"/>
<path d="M114.207 209.466C114.385 209.466 114.557 209.411 114.692 209.312C114.826 209.213 114.914 209.076 114.939 208.927C114.971 208.74 118.053 189.906 115.285 164.875C112.729 141.759 104.519 108.463 79.927 81.1181C79.8681 81.0525 79.7945 80.9973 79.7104 80.9557C79.6263 80.9142 79.5334 80.8871 79.437 80.876C79.3405 80.8649 79.2424 80.87 79.1483 80.8911C79.0541 80.9121 78.9659 80.9487 78.8884 80.9987C78.811 81.0487 78.7459 81.1111 78.697 81.1824C78.6481 81.2537 78.6162 81.3325 78.6033 81.4143C78.5903 81.496 78.5965 81.5791 78.6215 81.6588C78.6464 81.7385 78.6897 81.8133 78.7488 81.8789C103.129 108.988 111.272 142.039 113.81 164.992C116.562 189.877 113.504 208.564 113.473 208.75C113.458 208.839 113.466 208.93 113.496 209.016C113.526 209.102 113.578 209.182 113.647 209.25C113.717 209.318 113.803 209.372 113.899 209.409C113.996 209.447 114.101 209.466 114.207 209.466Z" fill="#3F3D56"/>
<path d="M94.1384 119.69C94.2949 119.69 94.4473 119.648 94.574 119.57C94.7006 119.492 94.7949 119.383 94.8433 119.256C94.8917 119.13 94.8917 118.995 94.8434 118.869C94.7952 118.742 94.701 118.633 94.5744 118.555C94.4852 118.5 85.4887 113.007 72.039 108.835C59.6058 104.978 40.6993 101.482 21.2354 106.731C21.1426 106.755 21.0565 106.796 20.982 106.849C20.9075 106.902 20.8461 106.967 20.8013 107.04C20.7565 107.113 20.7292 107.193 20.7209 107.275C20.7127 107.358 20.7236 107.44 20.7531 107.519C20.7827 107.598 20.8302 107.671 20.893 107.734C20.9558 107.797 21.0326 107.848 21.1192 107.886C21.2057 107.924 21.3001 107.947 21.3972 107.954C21.4942 107.961 21.5918 107.951 21.6845 107.926C40.7497 102.786 59.3135 106.224 71.5297 110.014C84.7874 114.126 93.6159 119.516 93.7036 119.57C93.8299 119.648 93.9821 119.69 94.1384 119.69Z" fill="#3F3D56"/>
<path d="M128.036 48.1574C128.048 48.0252 128.009 47.8933 127.927 47.7807C127.844 47.6681 127.722 47.5805 127.577 47.5305C127.432 47.4805 127.272 47.4707 127.12 47.5024C126.968 47.5342 126.832 47.6058 126.731 47.7072C126.66 47.7787 119.547 54.9859 113.666 66.0513C108.231 76.2805 102.754 92.0061 107.531 108.833C107.576 108.994 107.696 109.134 107.864 109.221C108.031 109.308 108.233 109.335 108.424 109.296C108.615 109.257 108.78 109.155 108.882 109.013C108.985 108.872 109.016 108.701 108.971 108.539C104.292 92.0574 109.677 76.6173 115.017 66.5666C120.814 55.6591 127.794 48.5864 127.864 48.5162C127.965 48.4151 128.025 48.2895 128.036 48.1574Z" fill="#3F3D56"/>
<path d="M127.034 80.5147C127.659 84.7864 131.153 88.3084 136.233 88.3084C138.672 88.3084 141.012 87.4873 142.737 86.0257C144.462 84.5641 145.431 82.5817 145.431 80.5147C145.431 76.2103 141.291 73.1189 136.233 72.7209C130.865 72.2987 126.232 75.0304 127.034 80.5147Z" fill="#2F2E41"/>
<path d="M140.493 206.033L143.996 206.033L145.662 194.585L140.492 194.585L140.493 206.033Z" fill="#FFB6B6"/>
<path d="M140.37 209.129L151.142 209.129V209.013C151.142 208.071 150.7 207.168 149.914 206.502C149.127 205.835 148.061 205.461 146.949 205.461L144.981 204.196L141.31 205.461L140.37 205.461L140.37 209.129Z" fill="#2F2E41"/>
<path d="M126.695 206.033L130.198 206.033L131.864 194.585L126.694 194.585L126.695 206.033Z" fill="#FFB6B6"/>
<path d="M126.572 209.129L137.344 209.129V209.013C137.344 208.071 136.902 207.168 136.116 206.502C135.329 205.835 134.263 205.461 133.151 205.461L131.183 204.196L127.512 205.461L126.572 205.461L126.572 209.129Z" fill="#2F2E41"/>
<path d="M152.548 134.333L155.024 141.528L152.107 171.997C152.107 171.997 153.609 173.902 152.548 173.902C151.486 173.902 150.125 174.324 150.983 175.462C151.84 176.599 148.909 180.684 148.909 180.684L144.764 202.379L139.482 202.313C139.482 202.313 136.797 201.045 138.304 199.764C139.811 198.482 140.872 198.482 139.457 197.283C138.042 196.084 138.042 196.445 138.042 195.515C138.042 194.585 136.624 183.22 139.987 178.861L138.973 161.086L136.587 178.521L131.674 201.779L126.586 201.744C126.586 201.744 124.235 199.824 124.24 198.404C124.244 196.983 125.692 196.865 124.614 196.025C123.537 195.185 123.537 182.276 126.721 175.101C126.721 175.101 128.522 171.092 126.717 169.718C124.911 168.344 126.714 166.772 126.714 166.772C126.714 166.772 129.574 165.897 126.712 163.373C123.85 160.85 126.696 143.005 126.696 143.005C126.696 143.005 123.568 135.802 126.736 132.969C129.905 130.137 152.548 134.333 152.548 134.333Z" fill="#2F2E41"/>
<path d="M108.438 146.728L112.857 137.681L116.338 139.319L114.236 148.523C114.446 149.106 114.461 149.727 114.278 150.317C114.094 150.907 113.72 151.441 113.198 151.861C112.676 152.28 112.026 152.568 111.321 152.692C110.616 152.815 109.885 152.77 109.209 152.561C108.533 152.351 107.939 151.987 107.495 151.507C107.05 151.028 106.772 150.453 106.692 149.847C106.612 149.241 106.733 148.628 107.041 148.077C107.35 147.526 107.834 147.059 108.438 146.728Z" fill="#FFB6B6"/>
<path d="M182.584 75.1844L175.861 83.1483L172.909 80.8839L177.418 72.3233C177.369 71.715 177.521 71.1071 177.857 70.568C178.193 70.0289 178.7 69.5799 179.321 69.2716C179.942 68.9632 180.652 68.8078 181.372 68.8226C182.091 68.8375 182.791 69.0221 183.394 69.3557C183.996 69.6893 184.477 70.1586 184.782 70.711C185.086 71.2633 185.203 71.8768 185.119 72.4824C185.035 73.0879 184.753 73.6617 184.306 74.139C183.858 74.6163 183.262 74.9784 182.584 75.1844Z" fill="#FFB6B6"/>
<path d="M153.215 135.071C157.576 140.802 135.656 148.075 127.245 145.155C125.772 144.644 120.706 142.955 124.169 140.614C127.632 138.272 123.767 137.943 123.676 136.419C123.615 135.4 124.546 133.165 123.575 133.26C122.603 133.356 121.466 131.947 123.582 131.341C125.698 130.734 123.605 130.181 123.623 129.606C123.825 123.324 129.514 113.333 129.514 113.333L119.264 135.532C119.264 135.532 119.34 139.373 118.033 138.199C116.725 137.025 116.821 140.824 116.821 140.824C116.821 140.824 114.877 141.973 115.995 142.613C117.112 143.252 114.791 145.219 114.791 145.219L109.376 144.891C109.376 144.891 109.461 141.483 110.385 140.729C111.31 139.975 110.856 138.789 110.856 138.789C110.856 138.789 113.263 136.983 111.649 135.517C109.574 133.632 117.142 101.785 119.753 102.101C120.123 100.578 120.982 99.1716 122.235 98.0368C123.489 96.902 125.089 96.083 126.858 95.6703L132.707 94.3059L133.745 90.8144H141.981L143.416 93.1086L149.677 95.5026C150.856 94.0927 151.738 92.607 156.567 92.1254C156.567 92.1254 169.581 82.0933 168.945 81.31C168.31 80.5267 170.327 78.6928 170.327 78.6928C170.327 78.6928 172.05 78.2151 171.078 77.96C170.106 77.7049 171.943 77.1152 171.943 77.1152C171.943 77.1152 173.645 76.7363 172.842 76.2374C172.04 75.7385 175.521 75.4108 175.521 75.4108L180.038 78.5333L179.125 79.8449C179.125 79.8449 179.682 81.6308 178.955 80.9788C178.229 80.3268 178.092 82.219 178.092 82.219C178.092 82.219 177.721 84.2909 175.521 84.9151C173.321 85.5394 171.653 91.4699 171.653 91.4699C166.465 97.1855 160.342 101.644 153.086 104.579C155.914 107.329 153.215 135.071 153.215 135.071Z" fill="#628D3D"/>
<path d="M137.249 88.7712C141.754 88.7712 145.406 85.677 145.406 81.86C145.406 78.0431 141.754 74.9489 137.249 74.9489C132.744 74.9489 129.092 78.0431 129.092 81.86C129.092 85.677 132.744 88.7712 137.249 88.7712Z" fill="#FFB6B6"/>
<path d="M128.803 82.6129C129.061 84.1147 130.572 86.2101 130.218 86.2101C129.864 86.2101 127.349 80.019 129.864 79.6153C131.689 79.3225 132.097 79.5794 133.802 78.9529L133.562 79.1447C134.69 79.8402 136.261 79.4115 137.549 78.9589C138.84 78.5092 140.407 78.0806 141.54 78.773C142.251 79.2077 142.551 79.9631 142.994 80.6046C143.436 81.249 144.253 81.8575 145.095 81.6597C145.771 81.5008 146.16 80.8593 146.157 80.2658C146.153 79.6723 145.241 79.1077 145.548 78.5752C146.458 76.9971 145.64 75.9215 143.655 75.1789C142.934 75.086 142.212 74.9911 141.49 74.8941C141.868 74.4503 142.327 74.0598 142.849 73.7371C142.628 73.2581 142.247 72.8444 141.752 72.547C141.175 72.2562 140.461 72.2772 139.792 72.3072C138.299 72.3731 136.807 72.4391 135.316 72.505C134.213 72.553 133.07 72.61 132.083 73.0386C130.852 73.5752 130.045 74.6214 129.458 75.6855C128.141 78.0776 128.35 80.002 128.803 82.6129Z" fill="#2F2E41"/>
<path d="M94.8705 209.908L175.093 210C175.205 210 175.312 209.962 175.391 209.896C175.47 209.829 175.514 209.738 175.514 209.643C175.514 209.548 175.47 209.458 175.391 209.391C175.312 209.324 175.205 209.286 175.093 209.286L94.8705 209.194C94.7587 209.194 94.6516 209.232 94.5726 209.299C94.4936 209.366 94.4492 209.456 94.4492 209.551C94.4492 209.646 94.4936 209.736 94.5726 209.803C94.6516 209.87 94.7587 209.908 94.8705 209.908Z" fill="#CACACA"/>
<path d="M65.8559 178.796C66.0038 177.934 64.9392 177.09 63.4781 176.91C62.0169 176.73 60.7125 177.282 60.5647 178.143C60.4168 179.004 61.4814 179.849 62.9425 180.029C64.4037 180.209 65.708 179.657 65.8559 178.796Z" fill="#E6E6E6"/>
<path d="M83.2524 177.357C83.4003 176.496 82.3357 175.652 80.8745 175.472C79.4134 175.292 78.109 175.844 77.9611 176.705C77.8132 177.566 78.8778 178.41 80.339 178.59C81.8001 178.771 83.1045 178.218 83.2524 177.357Z" fill="#3F3D56"/>
<path d="M61.0922 166.863C61.2401 166.001 60.1755 165.157 58.7144 164.977C57.2532 164.797 55.9489 165.349 55.801 166.21C55.6531 167.072 56.7177 167.916 58.1788 168.096C59.64 168.276 60.9444 167.724 61.0922 166.863Z" fill="#FF6584"/>
<path d="M53.533 161.975C53.54 161.184 53.0195 160.54 52.3704 160.536C51.7212 160.532 51.1893 161.169 51.1822 161.96C51.1752 162.75 51.6957 163.395 52.3448 163.399C52.994 163.403 53.5259 162.765 53.533 161.975Z" fill="#E6E6E6"/>
<path d="M50.9695 152.871C50.9765 152.08 50.456 151.436 49.8069 151.432C49.1578 151.427 48.6258 152.065 48.6187 152.856C48.6117 153.646 49.1322 154.29 49.7813 154.295C50.4305 154.299 50.9624 153.661 50.9695 152.871Z" fill="#3F3D56"/>
<path d="M70.904 168.893C70.9111 168.103 70.3906 167.458 69.7415 167.454C69.0923 167.45 68.5604 168.088 68.5533 168.878C68.5462 169.669 69.0668 170.313 69.7159 170.317C70.3651 170.322 70.897 169.684 70.904 168.893Z" fill="#E6E6E6"/>
<path d="M62.4973 172.45C62.5044 171.659 61.9838 171.015 61.3347 171.011C60.6856 171.006 60.1536 171.644 60.1466 172.435C60.1395 173.225 60.66 173.869 61.3092 173.874C61.9583 173.878 62.4903 173.24 62.4973 172.45Z" fill="#FF6584"/>
<path d="M74.1999 179.023C74.207 178.232 73.6865 177.588 73.0374 177.584C72.3882 177.579 71.8563 178.217 71.8492 179.008C71.8421 179.798 72.3627 180.443 73.0118 180.447C73.6609 180.451 74.1929 179.813 74.1999 179.023Z" fill="#3F3D56"/>
<path d="M199.59 132.632C199.738 131.771 198.673 130.927 197.212 130.747C195.751 130.567 194.446 131.119 194.299 131.98C194.151 132.841 195.215 133.686 196.676 133.866C198.138 134.046 199.442 133.494 199.59 132.632Z" fill="#E6E6E6"/>
<path d="M216.986 131.194C217.134 130.333 216.07 129.489 214.608 129.309C213.147 129.129 211.843 129.681 211.695 130.542C211.547 131.403 212.612 132.247 214.073 132.427C215.534 132.608 216.838 132.055 216.986 131.194Z" fill="#3F3D56"/>
<path d="M194.826 120.7C194.974 119.838 193.909 118.994 192.448 118.814C190.987 118.634 189.682 119.186 189.534 120.047C189.386 120.909 190.451 121.753 191.912 121.933C193.373 122.113 194.678 121.561 194.826 120.7Z" fill="#FF6584"/>
<path d="M187.267 115.812C187.274 115.021 186.753 114.377 186.104 114.373C185.455 114.369 184.923 115.006 184.916 115.797C184.909 116.587 185.43 117.232 186.079 117.236C186.728 117.24 187.26 116.602 187.267 115.812Z" fill="#E6E6E6"/>
<path d="M184.703 106.708C184.71 105.917 184.19 105.273 183.541 105.268C182.892 105.264 182.36 105.902 182.353 106.692C182.346 107.483 182.866 108.127 183.515 108.132C184.164 108.136 184.696 107.498 184.703 106.708Z" fill="#3F3D56"/>
<path d="M204.638 122.73C204.645 121.94 204.124 121.295 203.475 121.291C202.826 121.287 202.294 121.925 202.287 122.715C202.28 123.506 202.801 124.15 203.45 124.154C204.099 124.158 204.631 123.521 204.638 122.73Z" fill="#E6E6E6"/>
<path d="M196.231 126.287C196.238 125.496 195.718 124.852 195.069 124.848C194.419 124.843 193.888 125.481 193.88 126.272C193.873 127.062 194.394 127.706 195.043 127.711C195.692 127.715 196.224 127.077 196.231 126.287Z" fill="#FF6584"/>
<path d="M207.934 132.86C207.941 132.069 207.42 131.425 206.771 131.421C206.122 131.416 205.59 132.054 205.583 132.845C205.576 133.635 206.097 134.279 206.746 134.284C207.395 134.288 207.927 133.65 207.934 132.86Z" fill="#3F3D56"/>
<path d="M134.846 47.201C134.994 46.3398 133.929 45.4956 132.468 45.3155C131.007 45.1354 129.702 45.6875 129.554 46.5487C129.407 47.4099 130.471 48.2541 131.932 48.4342C133.393 48.6144 134.698 48.0622 134.846 47.201Z" fill="white"/>
<path d="M152.242 45.7627C152.39 44.9015 151.325 44.0574 149.864 43.8772C148.403 43.6971 147.099 44.2492 146.951 45.1104C146.803 45.9717 147.868 46.8158 149.329 46.9959C150.79 47.1761 152.094 46.6239 152.242 45.7627Z" fill="#3F3D56"/>
<path d="M130.082 35.2681C130.23 34.4069 129.165 33.5627 127.704 33.3826C126.243 33.2025 124.939 33.7546 124.791 34.6158C124.643 35.477 125.707 36.3212 127.169 36.5013C128.63 36.6814 129.934 36.1293 130.082 35.2681Z" fill="#FF6584"/>
<path d="M122.523 30.3803C122.53 29.5896 122.009 28.9453 121.36 28.9412C120.711 28.937 120.179 29.5746 120.172 30.3652C120.165 31.1558 120.685 31.8001 121.335 31.8043C121.984 31.8084 122.516 31.1709 122.523 30.3803Z" fill="#E6E6E6"/>
<path d="M119.959 21.2761C119.966 20.4854 119.446 19.8411 118.797 19.837C118.147 19.8328 117.616 20.4704 117.608 21.261C117.601 22.0516 118.122 22.6959 118.771 22.7001C119.42 22.7043 119.952 22.0667 119.959 21.2761Z" fill="#3F3D56"/>
<path d="M139.894 37.2988C139.901 36.5081 139.38 35.8638 138.731 35.8597C138.082 35.8555 137.55 36.4931 137.543 37.2837C137.536 38.0743 138.057 38.7186 138.706 38.7228C139.355 38.727 139.887 38.0894 139.894 37.2988Z" fill="#E6E6E6"/>
<path d="M131.487 40.8551C131.494 40.0645 130.974 39.4202 130.324 39.416C129.675 39.4119 129.143 40.0494 129.136 40.84C129.129 41.6307 129.65 42.275 130.299 42.2791C130.948 42.2833 131.48 41.6457 131.487 40.8551Z" fill="#FF6584"/>
<path d="M143.19 47.4282C143.197 46.6375 142.676 45.9933 142.027 45.9891C141.378 45.9849 140.846 46.6225 140.839 47.4131C140.832 48.2037 141.352 48.848 142.002 48.8522C142.651 48.8564 143.183 48.2188 143.19 47.4282Z" fill="#3F3D56"/>
</g>
<defs>
<clipPath id="clip0_574_319">
<rect width="217" height="210" fill="white"/>
</clipPath>
</defs>
</svg>
