<svg width="302" height="226" viewBox="0 0 302 226" fill="none" xmlns="http://www.w3.org/2000/svg">
<g clip-path="url(#clip0_1623_3961)">
<path d="M16.6871 225.883C18.3311 225.329 19.858 224.404 21.1748 223.164C22.4916 221.924 23.5708 220.395 24.3468 218.67C25.1228 216.945 25.5792 215.06 25.6884 213.13C25.7976 211.199 25.5572 209.264 24.9819 207.442C23.7684 203.58 21.0182 200.734 19.3787 197.137C17.7727 193.607 17.3977 189.527 18.3274 185.701C19.2572 181.875 21.4244 178.58 24.402 176.466C24.744 176.222 25.0948 175.995 25.4545 175.785C25.7942 175.585 25.4938 175.006 25.1543 175.206C22.0821 177.004 19.6723 179.968 18.3507 183.574C17.0292 187.181 16.8808 191.198 17.9319 194.916C18.5116 196.846 19.3502 198.664 20.4184 200.308C21.4444 201.962 22.5667 203.548 23.4532 205.307C24.3638 207.095 24.9109 209.088 25.055 211.144C25.1992 213.199 24.9368 215.265 24.2868 217.192C23.6852 218.892 22.7886 220.439 21.6496 221.743C20.5105 223.047 19.1519 224.082 17.6534 224.786C17.2858 224.958 16.9098 225.106 16.5289 225.236C16.4553 225.262 16.3935 225.32 16.3566 225.396C16.3197 225.472 16.3105 225.562 16.331 225.646C16.3515 225.73 16.4001 225.801 16.4665 225.845C16.533 225.89 16.6121 225.903 16.6871 225.883Z" fill="#F0F0F0"/>
<path d="M25.323 182.044C28.5735 182.044 31.2085 179.074 31.2085 175.409C31.2085 171.745 28.5735 168.774 25.323 168.774C22.0725 168.774 19.4375 171.745 19.4375 175.409C19.4375 179.074 22.0725 182.044 25.323 182.044Z" fill="#F0F0F0"/>
<path d="M22.0105 198.631C24.042 198.631 25.6889 196.774 25.6889 194.484C25.6889 192.194 24.042 190.337 22.0105 190.337C19.9789 190.337 18.332 192.194 18.332 194.484C18.332 196.774 19.9789 198.631 22.0105 198.631Z" fill="#F0F0F0"/>
<path d="M205.738 121.798C204.094 121.245 202.567 120.32 201.25 119.08C199.933 117.84 198.854 116.311 198.078 114.586C197.302 112.86 196.846 110.975 196.737 109.045C196.627 107.115 196.868 105.18 197.443 103.357C198.657 99.4958 201.407 96.6495 203.046 93.0521C204.652 89.5223 205.027 85.4424 204.098 81.6164C203.168 77.7903 201.001 74.4956 198.023 72.3813C197.681 72.1371 197.33 71.9101 196.97 71.7002C196.631 71.5009 196.931 70.922 197.271 71.1212C200.343 72.9191 202.753 75.8832 204.074 79.4899C205.396 83.0965 205.544 87.1137 204.493 90.8317C203.913 92.7615 203.075 94.5797 202.007 96.223C200.981 97.8774 199.858 99.4634 198.972 101.222C198.061 103.01 197.514 105.004 197.37 107.059C197.226 109.115 197.488 111.18 198.138 113.107C198.74 114.807 199.636 116.355 200.775 117.659C201.914 118.963 203.273 119.998 204.772 120.702C205.139 120.874 205.515 121.022 205.896 121.152C205.97 121.178 206.031 121.235 206.068 121.311C206.105 121.388 206.114 121.477 206.094 121.561C206.073 121.645 206.025 121.717 205.958 121.761C205.892 121.805 205.813 121.819 205.738 121.798Z" fill="#F0F0F0"/>
<path d="M197.104 77.9597C200.355 77.9597 202.99 74.9891 202.99 71.3248C202.99 67.6605 200.355 64.6899 197.104 64.6899C193.854 64.6899 191.219 67.6605 191.219 71.3248C191.219 74.9891 193.854 77.9597 197.104 77.9597Z" fill="#F0F0F0"/>
<path d="M200.417 94.547C202.448 94.547 204.095 92.6904 204.095 90.4002C204.095 88.11 202.448 86.2534 200.417 86.2534C198.385 86.2534 196.738 88.11 196.738 90.4002C196.738 92.6904 198.385 94.547 200.417 94.547Z" fill="#F0F0F0"/>
<path d="M152.335 53.4781H151.238V19.6049C151.238 17.0303 150.788 14.481 149.914 12.1024C149.04 9.72386 147.759 7.56263 146.144 5.74215C144.529 3.92166 142.612 2.47758 140.502 1.49234C138.392 0.507101 136.131 2.17829e-06 133.847 0H70.1876C65.5753 -9.89815e-06 61.1519 2.06549 57.8905 5.74211C54.6291 9.41873 52.7969 14.4053 52.7969 19.6048V205.436C52.7969 208.01 53.2467 210.56 54.1206 212.938C54.9946 215.317 56.2756 217.478 57.8905 219.299C59.5053 221.119 61.4225 222.563 63.5324 223.548C65.6423 224.534 67.9037 225.041 70.1875 225.041H133.847C138.459 225.041 142.883 222.975 146.144 219.299C149.406 215.622 151.238 210.635 151.238 205.436V77.5896H152.335V53.4781Z" fill="#CACACA"/>
<path d="M134.551 5.1006H126.241C126.623 6.15677 126.769 7.30268 126.666 8.43737C126.563 9.57207 126.214 10.6607 125.649 11.6074C125.085 12.5542 124.323 13.3299 123.43 13.8663C122.537 14.4027 121.54 14.6833 120.529 14.6834H84.0588C83.047 14.6833 82.0507 14.4027 81.1578 13.8663C80.2648 13.3299 79.5025 12.5542 78.9382 11.6074C78.3738 10.6607 78.0246 9.57207 77.9213 8.43737C77.8181 7.30267 77.964 6.15676 78.3461 5.10059H70.5848C68.8793 5.10058 67.1905 5.47928 65.6148 6.21504C64.0392 6.95081 62.6075 8.02923 61.4015 9.38874C60.1955 10.7483 59.2389 12.3622 58.5862 14.1385C57.9336 15.9148 57.5977 17.8186 57.5977 19.7413V205.3C57.5977 207.222 57.9336 209.126 58.5862 210.902C59.2389 212.679 60.1955 214.293 61.4015 215.652C62.6075 217.012 64.0392 218.09 65.6148 218.826C67.1905 219.562 68.8793 219.94 70.5848 219.94H134.551C136.257 219.94 137.945 219.562 139.521 218.826C141.097 218.09 142.528 217.012 143.734 215.652C144.94 214.293 145.897 212.679 146.55 210.902C147.202 209.126 147.538 207.222 147.538 205.3V19.7413C147.538 17.8186 147.202 15.9148 146.55 14.1385C145.897 12.3622 144.94 10.7483 143.734 9.38875C142.528 8.02924 141.097 6.95081 139.521 6.21505C137.945 5.47929 136.257 5.1006 134.551 5.1006Z" fill="white"/>
<path d="M128.086 161.494C116.986 161.27 116.988 142.673 128.087 142.45C139.187 142.675 139.185 161.271 128.086 161.494Z" fill="white"/>
<path d="M128.086 161.494C116.986 161.27 116.988 142.673 128.087 142.45C139.187 142.675 139.185 161.271 128.086 161.494ZM128.086 143.027C117.659 143.238 117.66 160.708 128.087 160.917C138.514 160.706 138.512 143.236 128.086 143.027Z" fill="#E6E6E6"/>
<path d="M129.891 147.091C127.809 147.158 123.76 146.319 123.758 149.939C123.817 152.286 123.073 156.851 126.283 156.853C128.366 156.786 132.415 157.625 132.417 154.006C132.357 151.658 133.102 147.093 129.891 147.091Z" fill="#CACACA"/>
<path d="M130.431 149.938C130.29 149.934 130.156 149.867 130.058 149.753C129.961 149.639 129.906 149.487 129.906 149.328C129.907 149.17 129.962 149.017 130.06 148.904C130.159 148.79 130.292 148.725 130.433 148.721C130.574 148.725 130.707 148.792 130.805 148.906C130.903 149.02 130.958 149.172 130.957 149.331C130.957 149.49 130.902 149.642 130.803 149.755C130.705 149.869 130.571 149.934 130.431 149.938Z" fill="white"/>
<path d="M128.087 150.345C129.96 150.314 129.96 153.631 128.087 153.599C126.214 153.63 126.214 150.314 128.087 150.345ZM128.087 149.532C125.278 149.485 125.278 154.459 128.087 154.413C130.896 154.459 130.896 149.485 128.087 149.532Z" fill="white"/>
<path d="M76.977 161.494C65.8765 161.27 65.8783 142.673 76.9773 142.45C88.0774 142.675 88.0757 161.271 76.977 161.494Z" fill="white"/>
<path d="M76.977 161.494C65.8765 161.27 65.8783 142.673 76.9773 142.45C88.0774 142.675 88.0757 161.271 76.977 161.494ZM76.977 143.027C66.5493 143.238 66.5509 160.708 76.9773 160.917C87.4047 160.706 87.403 143.236 76.977 143.027Z" fill="#E6E6E6"/>
<path d="M81.5652 149.57C81.3023 149.915 81.0165 150.237 80.7102 150.534C80.3313 155.181 77.7571 156.237 75.6902 156.237C74.2043 156.237 72.9798 155.691 73.0205 155.541C75.2252 155.6 75.4131 154.579 75.4131 154.579C74.1322 154.366 73.8755 153.423 73.8755 153.423C73.9903 153.491 74.1235 153.509 74.2494 153.474C74.3754 153.438 74.4853 153.352 74.5582 153.231C74.1824 153.134 73.852 152.883 73.6312 152.527C73.4104 152.17 73.315 151.734 73.3634 151.303C73.6098 151.504 73.8976 151.63 74.1996 151.67C74.0461 151.459 72.7528 149.711 73.531 148.805C73.9403 149.46 74.4872 149.991 75.1227 150.349C75.7583 150.708 76.4627 150.883 77.1731 150.86C77.1197 150.565 77.125 150.26 77.1885 149.968C77.252 149.675 77.3722 149.402 77.5405 149.168C77.7088 148.934 77.9209 148.745 78.1617 148.615C78.4025 148.484 78.6659 148.416 78.933 148.414C80.1293 148.414 80.3862 149.185 80.3862 149.185L81.2411 148.606C81.2238 148.606 81.1377 149.57 80.7103 149.762L81.5652 149.57Z" fill="#CACACA"/>
<path d="M102.532 161.494C91.4312 161.27 91.433 142.673 102.532 142.45C113.632 142.675 113.63 161.271 102.532 161.494Z" fill="white"/>
<path d="M102.532 161.494C91.4312 161.27 91.433 142.673 102.532 142.45C113.632 142.675 113.63 161.271 102.532 161.494ZM102.532 143.027C92.104 143.238 92.1056 160.708 102.532 160.917C112.959 160.706 112.958 143.236 102.532 143.027Z" fill="#E6E6E6"/>
<path d="M107.187 152.003C107.187 153.263 106.789 154.481 106.063 155.439C105.337 156.397 104.332 157.032 103.228 157.23V153.533H104.321L104.53 152.003H103.228C103.185 150.728 103.141 150.014 104.584 150.185V148.884C102.422 148.347 101.52 149.583 101.763 152.003H100.571V153.533H101.763V157.228C96.1541 156.255 96.8133 146.69 102.494 146.714C103.738 146.714 104.932 147.271 105.812 148.263C106.692 149.255 107.187 150.6 107.187 152.003Z" fill="#CACACA"/>
<path d="M134.907 105.76H70.223C69.8242 105.76 69.4419 105.581 69.1599 105.263C68.8778 104.945 68.7192 104.514 68.7188 104.064V58.9556C68.7192 58.506 68.8778 58.0749 69.1599 57.757C69.4419 57.4391 69.8242 57.2603 70.223 57.2598H134.907C135.306 57.2603 135.689 57.4391 135.971 57.757C136.253 58.0749 136.411 58.506 136.412 58.9556V104.064C136.411 104.514 136.253 104.945 135.971 105.263C135.689 105.581 135.306 105.76 134.907 105.76Z" fill="white"/>
<path d="M134.907 105.76H70.223C69.8242 105.76 69.4419 105.581 69.1599 105.263C68.8778 104.945 68.7192 104.514 68.7188 104.064V58.9556C68.7192 58.506 68.8778 58.0749 69.1599 57.757C69.4419 57.4391 69.8242 57.2603 70.223 57.2598H134.907C135.306 57.2603 135.689 57.4391 135.971 57.757C136.253 58.0749 136.411 58.506 136.412 58.9556V104.064C136.411 104.514 136.253 104.945 135.971 105.263C135.689 105.581 135.306 105.76 134.907 105.76ZM70.223 57.9381C69.9837 57.9384 69.7543 58.0457 69.5851 58.2365C69.4159 58.4272 69.3207 58.6858 69.3205 58.9556V104.064C69.3207 104.334 69.4159 104.593 69.5851 104.784C69.7543 104.974 69.9837 105.082 70.223 105.082H134.907C135.147 105.082 135.376 104.974 135.545 104.784C135.715 104.593 135.81 104.334 135.81 104.064V58.9556C135.81 58.6858 135.715 58.4272 135.545 58.2365C135.376 58.0457 135.147 57.9384 134.907 57.9381H70.223Z" fill="#CACACA"/>
<path d="M122.121 77.779H83.0096C82.6513 77.7777 82.3081 77.6163 82.0551 77.3302C81.8022 77.0442 81.6602 76.6567 81.6602 76.2528C81.6602 75.8489 81.8022 75.4614 82.0551 75.1754C82.3081 74.8893 82.6513 74.7279 83.0096 74.7266H122.121C122.299 74.7259 122.476 74.7649 122.641 74.8413C122.805 74.9177 122.955 75.03 123.081 75.1718C123.207 75.3136 123.308 75.4821 123.376 75.6676C123.444 75.8531 123.479 76.0519 123.479 76.2528C123.479 76.4537 123.444 76.6525 123.376 76.838C123.308 77.0235 123.207 77.192 123.081 77.3338C122.955 77.4756 122.805 77.5879 122.641 77.6643C122.476 77.7407 122.299 77.7797 122.121 77.779Z" fill="#8ABE53"/>
<path d="M122.121 88.2932H83.0096C82.6513 88.2918 82.3081 88.1305 82.0551 87.8444C81.8022 87.5583 81.6602 87.1709 81.6602 86.767C81.6602 86.3631 81.8022 85.9756 82.0551 85.6895C82.3081 85.4034 82.6513 85.2421 83.0096 85.2407H122.121C122.299 85.2401 122.476 85.2791 122.641 85.3555C122.805 85.4319 122.955 85.5442 123.081 85.686C123.207 85.8278 123.308 85.9962 123.376 86.1817C123.444 86.3672 123.479 86.5661 123.479 86.767C123.479 86.9678 123.444 87.1667 123.376 87.3522C123.308 87.5377 123.207 87.7062 123.081 87.848C122.955 87.9897 122.805 88.102 122.641 88.1784C122.476 88.2549 122.299 88.2938 122.121 88.2932Z" fill="#8ABE53"/>
<path d="M203.322 144.303C203.26 144.563 203.216 144.827 203.191 145.095L184.274 156.295L179.881 153.176L174.84 160.034L182.14 166.407C182.73 166.922 183.452 167.207 184.198 167.22C184.943 167.233 185.673 166.973 186.276 166.478L205.944 150.371C206.792 150.769 207.727 150.866 208.626 150.65C209.524 150.434 210.342 149.914 210.972 149.161C211.602 148.407 212.014 147.456 212.152 146.432C212.291 145.408 212.149 144.362 211.747 143.431C211.345 142.5 210.701 141.729 209.901 141.221C209.1 140.713 208.182 140.492 207.267 140.586C206.353 140.681 205.485 141.087 204.781 141.751C204.076 142.415 203.567 143.305 203.322 144.303Z" fill="#FFB6B6"/>
<path d="M226.132 220.195L229.925 217.444L222.32 199.643L216.723 203.702L226.132 220.195Z" fill="#FFB6B6"/>
<path d="M224.367 219.5L231.837 214.084C233.1 213.169 234.633 212.857 236.1 213.216C237.567 213.575 238.847 214.576 239.659 216L239.759 216.174L227.528 225.041L224.367 219.5Z" fill="#2F2E41"/>
<path d="M171.484 189.617L200.601 168.602C200.601 168.602 205.95 168.02 209.161 175.153L228.552 206.554L220.279 212.865L198.761 187.677L183.996 204.139C183.996 204.139 205.75 200.117 205.015 216.29C204.431 229.124 174.656 224.722 162.391 222.358C160.061 221.929 157.844 220.928 155.896 219.425C153.948 217.921 152.317 215.953 151.12 213.66C149.804 211.088 149.097 208.167 150.202 205.406C153.149 198.044 171.484 189.617 171.484 189.617Z" fill="#2F2E41"/>
<path d="M157.051 207.18L148.66 205.266L151.051 158.84L160.706 145.509L166.458 144.361C168.173 144.01 169.942 144.398 171.414 145.449C172.887 146.5 173.956 148.135 174.409 150.033L176.944 160.474C181.246 168.685 175.22 178.206 174.664 179.052L174.977 193.452L157.051 207.18Z" fill="#8ABE53"/>
<path d="M164.863 147.327L165.396 145.204C165.396 145.204 171.173 140.403 180.001 152.844L175.771 161.345L166.575 160.93L164.863 147.327Z" fill="#8ABE53"/>
<path d="M178.154 130.805C179.791 138.369 173.339 138.931 165.686 141.036C158.033 143.14 152.076 145.991 150.44 138.427C148.803 130.863 148.932 116.622 159.759 113.645C170.959 110.565 176.517 123.241 178.154 130.805Z" fill="#2F2E41"/>
<path d="M163.36 141.344C168.661 141.344 172.958 136.5 172.958 130.524C172.958 124.548 168.661 119.704 163.36 119.704C158.059 119.704 153.762 124.548 153.762 130.524C153.762 136.5 158.059 141.344 163.36 141.344Z" fill="#FFB6B6"/>
<path d="M152.364 132.456L156.052 131.441L156.567 125.858L158.004 130.905L159.767 130.42L160.068 127.163L160.906 130.107L174.004 126.505C173.688 125.043 173.119 123.667 172.331 122.453C171.543 121.239 170.55 120.212 169.41 119.431C168.27 118.65 167.004 118.13 165.686 117.9C164.367 117.67 163.021 117.735 161.725 118.091L159.827 118.613C158.53 118.97 157.309 119.611 156.233 120.499C155.156 121.388 154.245 122.507 153.552 123.792C152.859 125.077 152.398 126.504 152.194 127.991C151.99 129.477 152.047 130.994 152.364 132.456Z" fill="#2F2E41"/>
<path d="M272.146 145.642H207.461C207.062 145.641 206.68 145.463 206.398 145.145C206.116 144.827 205.957 144.396 205.957 143.946V98.8374C205.957 98.3878 206.116 97.9568 206.398 97.6389C206.68 97.321 207.062 97.1421 207.461 97.1416H272.146C272.545 97.1421 272.927 97.321 273.209 97.6389C273.491 97.9568 273.65 98.3878 273.65 98.8374V143.946C273.65 144.396 273.491 144.827 273.209 145.145C272.927 145.463 272.545 145.641 272.146 145.642Z" fill="white"/>
<path d="M272.146 145.642H207.461C207.062 145.641 206.68 145.463 206.398 145.145C206.116 144.827 205.957 144.396 205.957 143.946V98.8374C205.957 98.3878 206.116 97.9568 206.398 97.6389C206.68 97.321 207.062 97.1421 207.461 97.1416H272.146C272.545 97.1421 272.927 97.321 273.209 97.6389C273.491 97.9568 273.65 98.3878 273.65 98.8374V143.946C273.65 144.396 273.491 144.827 273.209 145.145C272.927 145.463 272.545 145.641 272.146 145.642ZM207.461 97.8199C207.222 97.8202 206.993 97.9275 206.823 98.1183C206.654 98.309 206.559 98.5677 206.559 98.8374V143.946C206.559 144.216 206.654 144.475 206.823 144.665C206.993 144.856 207.222 144.963 207.461 144.964H272.146C272.385 144.963 272.614 144.856 272.784 144.665C272.953 144.475 273.048 144.216 273.048 143.946V98.8374C273.048 98.5677 272.953 98.309 272.784 98.1183C272.614 97.9275 272.385 97.8202 272.146 97.8199H207.461Z" fill="#CACACA"/>
<path d="M259.358 117.661H220.247C220.069 117.662 219.892 117.622 219.728 117.546C219.563 117.469 219.414 117.357 219.288 117.215C219.162 117.073 219.062 116.905 218.994 116.72C218.926 116.534 218.891 116.336 218.891 116.135C218.891 115.934 218.926 115.736 218.994 115.55C219.062 115.365 219.162 115.197 219.288 115.055C219.414 114.913 219.563 114.801 219.728 114.724C219.892 114.648 220.069 114.609 220.247 114.609H259.358C259.717 114.609 260.062 114.77 260.316 115.056C260.569 115.342 260.712 115.73 260.712 116.135C260.712 116.54 260.569 116.928 260.316 117.214C260.062 117.501 259.717 117.661 259.358 117.661Z" fill="#8ABE53"/>
<path d="M259.361 128.175H220.25C220.072 128.176 219.895 128.137 219.73 128.061C219.565 127.984 219.415 127.872 219.289 127.73C219.163 127.588 219.063 127.42 218.994 127.234C218.926 127.049 218.891 126.85 218.891 126.649C218.891 126.448 218.926 126.249 218.994 126.063C219.063 125.878 219.163 125.709 219.289 125.567C219.415 125.426 219.565 125.313 219.73 125.237C219.895 125.161 220.072 125.122 220.25 125.123H259.361C259.72 125.124 260.063 125.286 260.315 125.572C260.568 125.858 260.71 126.245 260.71 126.649C260.71 127.053 260.568 127.44 260.315 127.726C260.063 128.012 259.72 128.173 259.361 128.175Z" fill="#8ABE53"/>
<path d="M179.797 184.03C179.567 184.098 179.341 184.186 179.123 184.294L161.116 171.325L161.341 165.479L153.558 163.943L152.268 174.249C152.164 175.082 152.302 175.93 152.662 176.667C153.022 177.403 153.584 177.988 154.264 178.334L176.423 189.605C176.537 190.632 176.925 191.596 177.537 192.368C178.149 193.14 178.955 193.684 179.848 193.928C180.741 194.171 181.678 194.102 182.535 193.73C183.392 193.358 184.129 192.701 184.646 191.846C185.164 190.99 185.438 189.978 185.433 188.942C185.428 187.907 185.143 186.898 184.617 186.05C184.09 185.201 183.347 184.553 182.486 184.193C181.626 183.832 180.688 183.775 179.797 184.03Z" fill="#FFB6B6"/>
<path d="M162.161 147.628L160.804 145.7C160.804 145.7 155.355 143.721 152.412 152.015C149.469 160.308 152.228 168.394 152.228 168.394L165.103 169.639L166.022 156.161L162.161 147.628Z" fill="#8ABE53"/>
<path d="M301.632 226H0.367844C0.270286 226 0.176723 225.956 0.107739 225.878C0.0387546 225.801 0 225.695 0 225.585C0 225.475 0.0387546 225.37 0.107739 225.292C0.176723 225.214 0.270286 225.17 0.367844 225.17H301.632C301.73 225.17 301.823 225.214 301.892 225.292C301.961 225.37 302 225.475 302 225.585C302 225.695 301.961 225.801 301.892 225.878C301.823 225.956 301.73 226 301.632 226Z" fill="#CACACA"/>
</g>
<defs>
<clipPath id="clip0_1623_3961">
<rect width="302" height="226" fill="white"/>
</clipPath>
</defs>
</svg>
