<svg width="319" height="310" viewBox="0 0 319 310" fill="none" xmlns="http://www.w3.org/2000/svg">
<g clip-path="url(#clip0_1623_4120)">
<path d="M79.1544 99.5649C79.1544 99.5649 45.0366 112.821 38.4935 125.057C31.9504 137.293 79.1544 99.5649 79.1544 99.5649Z" fill="#8ABE53"/>
<path d="M20.2028 141.996C19.9654 142.016 19.7271 141.978 19.5038 141.885C19.2805 141.792 19.0775 141.646 18.9085 141.457C17.8471 140.378 18.7146 138.339 19.459 136.899C29.4407 117.597 79.6289 97.2563 81.76 96.4L86.3497 94.5562L82.4197 97.804C82.2744 97.9244 67.6738 109.98 52.7271 121.338C29.49 138.997 22.5911 141.996 20.2028 141.996ZM77.2996 100.008C64.1212 105.762 28.6065 122.396 20.6894 137.708C19.6349 139.747 19.858 140.259 19.8608 140.263C20.0742 140.523 22.7712 142.152 51.7582 120.139C61.8628 112.465 71.8319 104.451 77.2996 100.008Z" fill="#3F3D56"/>
<path d="M78.4157 86.3248C78.4157 86.3248 46.9749 82.679 37.4369 88.9093C27.899 95.1397 78.4157 86.3248 78.4157 86.3248Z" fill="#8ABE53"/>
<path d="M35.5715 92.2838C24.566 92.2838 23.8104 90.2936 23.4642 89.3837C22.7726 87.5629 24.6973 85.8485 25.3299 85.2851C38.9767 73.1303 80.4276 85.4136 82.1855 85.9421L85.5567 86.9564L82.1027 87.5127C81.9637 87.5351 68.0757 89.7636 54.0604 91.1585C45.8867 91.9721 39.9263 92.2838 35.5715 92.2838ZM45.2159 81.573C37.4642 81.573 30.3728 82.8397 26.2126 86.5451C24.9573 87.6629 24.6459 88.4172 24.7731 88.7505C25.0921 89.5895 28.1374 92.1269 53.9352 89.5589C63.5485 88.6019 73.1012 87.252 78.1747 86.495C71.6742 84.8071 57.6019 81.573 45.2159 81.573Z" fill="#3F3D56"/>
<path d="M87.4136 80.0779C87.4136 80.0779 71.599 37.2415 75.4307 33.0014C79.2624 28.7613 87.4136 80.0779 87.4136 80.0779Z" fill="#8ABE53"/>
<path d="M88.2869 83.846L86.3205 78.178C86.2725 78.0392 81.461 64.1354 77.4962 49.8212C69.3295 20.3413 72.6771 17.8238 73.7767 16.9966C74.0481 16.7771 74.367 16.6446 74.6997 16.6129C75.0324 16.5812 75.3666 16.6516 75.6667 16.8166C81.835 20.059 87.1101 71.8967 87.6912 77.7969L88.2869 83.846ZM74.8597 18.2124C74.7534 18.2182 74.6511 18.2602 74.5663 18.3327C70.6363 21.2885 78.6035 50.3885 85.6073 71.569C83.205 49.7295 78.7814 20.2256 75.0654 18.2719C75.0016 18.2351 74.9313 18.2148 74.8597 18.2124Z" fill="#3F3D56"/>
<path d="M93.3906 89.4979C93.3906 89.4979 101.879 46.1997 110.771 46.1997C119.664 46.1997 93.3906 89.4979 93.3906 89.4979Z" fill="#8ABE53"/>
<path d="M91.1484 92.4855L91.9881 88.9205C92.6047 86.3062 107.261 24.8911 123.283 24.8911C125.479 24.8911 126.427 26.0536 126.835 27.0286C131.108 37.2352 97.1159 84.3035 93.2261 89.6367L91.1484 92.4855ZM123.283 26.497C110.494 26.497 97.7824 72.0931 94.2965 85.6067C105.766 69.531 128.628 35.0734 125.548 27.7144C125.422 27.4133 125.039 26.497 123.283 26.497Z" fill="#3F3D56"/>
<path d="M98.3711 89.9296C98.3711 89.9296 127.554 69.1264 187.344 75.4766C247.133 81.8269 98.3711 89.9296 98.3711 89.9296Z" fill="#8ABE53"/>
<path d="M96.3828 90.7975L97.9106 89.3202C98.22 89.0211 105.66 81.9271 120.566 76.2222C134.283 70.9713 157.149 66.025 188.183 72.2776C201.295 74.919 202.997 76.8871 202.883 78.6204C202.77 80.333 202.506 84.3438 150.119 88.0621C124.52 89.8789 98.6523 90.7242 98.3937 90.7324L96.3828 90.7975ZM160.018 70.9631C126.308 70.9631 106.379 84.4747 100.601 89.0489C107.441 88.8019 128.83 87.9641 150.033 86.4589C198.712 83.0037 201.416 79.2242 201.463 78.5016C201.469 78.4244 201.432 76.5778 187.933 73.8584C178.722 71.9661 169.38 70.9972 160.018 70.9631Z" fill="#3F3D56"/>
<path d="M116.879 92.3692C116.879 92.3692 167.997 91.5995 170.869 97.7569C173.741 103.914 116.879 92.3692 116.879 92.3692Z" fill="#8ABE53"/>
<path d="M177.415 108.103C161.098 108.103 121.878 94.8866 116.672 93.107L112.406 91.6489L116.863 91.536C123.401 91.3709 180.851 90.2928 184.465 103.34C184.893 104.886 184.397 105.877 183.905 106.437C182.876 107.607 180.575 108.103 177.415 108.103ZM121.541 93.0682C145.519 100.996 178.812 109.953 182.894 105.306C183.115 105.055 183.339 104.658 183.107 103.819C180.539 94.5498 141.356 92.9164 121.541 93.0682Z" fill="#3F3D56"/>
<path d="M106.914 98.7622C106.914 98.7622 137.79 114.861 131.757 119.814C125.723 124.768 106.914 98.7622 106.914 98.7622Z" fill="#8ABE53"/>
<path d="M150.993 139.292C136.057 139.292 105.647 98.7664 104.232 96.87L102.23 94.1855L105.069 95.6205C107.139 96.6677 155.797 121.41 156.862 133.803C157.003 135.446 156.363 136.884 155.013 137.959C153.831 138.87 152.424 139.336 150.993 139.292ZM107.418 98.5943C119.161 113.793 145.288 143.739 154.191 136.648C155.139 135.893 155.538 135.038 155.445 133.958C154.679 125.047 122.883 106.674 107.418 98.5943Z" fill="#3F3D56"/>
<path d="M158.16 118.033C158.16 118.033 183.784 130.077 178.09 138.106C172.396 146.136 158.16 118.033 158.16 118.033Z" fill="#8ABE53"/>
<path d="M110.473 108.397C110.473 108.397 163.856 174.239 158.874 178.254C153.891 182.268 110.473 108.397 110.473 108.397Z" fill="#8ABE53"/>
<path d="M100.508 103.58C100.508 103.58 122.984 145.807 118.397 149.913C113.81 154.018 100.508 103.58 100.508 103.58Z" fill="#8ABE53"/>
<path d="M125.948 165.731C125.667 165.729 125.389 165.676 125.123 165.575C116.884 162.522 100.276 107.672 98.4099 101.427L96.75 95.874L99.6729 100.719C99.7598 100.864 108.496 115.369 116.248 130.375C130.58 158.116 129.392 163.571 127.252 165.261C126.871 165.567 126.415 165.732 125.948 165.731ZM101.569 106.829C107.627 126.228 119.822 161.921 125.567 164.05C125.708 164.117 125.862 164.142 126.013 164.124C126.165 164.106 126.311 164.044 126.436 163.946C127.612 163.017 128.854 157.966 115.021 131.19C110.114 121.69 104.809 112.389 101.569 106.829Z" fill="#3F3D56"/>
<path d="M90.9972 101.974C90.9972 101.974 70.7688 169.307 83.1817 168.613C95.5946 167.919 90.9972 101.974 90.9972 101.974Z" fill="#8ABE53"/>
<path d="M78.1463 179.866C75.9678 179.866 74.2926 178.905 73.1638 177.008C65.1556 163.544 88.8786 104.164 89.892 101.642L90.9743 98.9517L91.2482 101.89C91.4727 104.295 96.6102 160.96 84.9721 176.097C83.1322 178.49 80.9434 179.755 78.4667 179.859C78.359 179.864 78.2519 179.866 78.1463 179.866ZM90.0825 105.135C85.3927 117.3 67.7233 164.979 74.3462 176.113C75.2484 177.631 76.5788 178.335 78.4139 178.255C80.5103 178.167 82.3036 177.117 83.8968 175.045C93.6254 162.391 90.9972 117.362 90.0825 105.135Z" fill="#3F3D56"/>
<path d="M84.0136 105.321C84.0136 105.321 50.0583 149.131 53.1658 153.746C56.2734 158.36 84.0136 105.321 84.0136 105.321Z" fill="#8ABE53"/>
<path d="M42.9474 169.717C42.4977 169.725 42.0589 169.561 41.7024 169.252C41.4604 169.03 41.2632 168.752 41.1239 168.437C40.9846 168.123 40.9065 167.778 40.8947 167.426C40.0418 156.543 85.2406 99.8305 87.1647 97.4217L91.7148 91.7266L88.3095 98.3614C86.8581 101.189 52.6635 167.634 43.4555 169.659C43.2881 169.696 43.118 169.716 42.9474 169.717ZM83.4209 104.583C68.4457 123.769 41.7205 159.729 42.3127 167.285C42.3075 167.417 42.3286 167.548 42.3743 167.669C42.42 167.79 42.4892 167.898 42.5769 167.985C42.6645 168.052 42.7647 168.096 42.8698 168.113C42.9749 168.13 43.0821 168.12 43.183 168.083C49.5466 166.684 71.7766 126.69 83.4209 104.583Z" fill="#3F3D56"/>
<path d="M73.819 75.8199C73.819 75.8199 44.2158 36.3731 16.8409 40.196C-10.5339 44.0189 73.819 75.8199 73.819 75.8199Z" fill="#8ABE53"/>
<path d="M77.7664 77.6633L75.4364 77.0627C75.2494 77.0145 56.5394 72.1736 38.0415 65.9983C0.162773 53.3531 0.0404356 47.5384 0.000833825 45.6279C-0.0478237 43.3225 2.03261 41.5394 6.36099 40.1766C22.424 35.1186 40.5612 45.0817 52.9437 54.3324C61.2589 60.602 69.0163 67.7654 76.1072 75.7222L77.7664 77.6633ZM15.5536 40.4099C12.5775 40.3929 9.61327 40.8349 6.74326 41.7237C3.28306 42.8129 1.39446 44.1859 1.42367 45.5898C1.58563 53.299 43.5932 67.0459 73.3003 74.8581C66.2778 67.2587 39.7465 40.4099 15.5536 40.4099Z" fill="#3F3D56"/>
<path d="M50.6833 73.068C50.6833 73.068 11.5353 69.8562 14.3825 77.8857C17.2296 85.9151 50.6833 73.068 50.6833 73.068Z" fill="#8ABE53"/>
<path d="M60.6457 43.3588C60.6457 43.3588 58.5104 32.1175 54.9515 34.5264C51.3925 36.9352 60.6457 43.3588 60.6457 43.3588Z" fill="#8ABE53"/>
<path d="M96.7109 51.313C96.7109 51.313 106.478 5.01407 102.051 4.84421C97.6246 4.67436 96.7109 51.313 96.7109 51.313Z" fill="#8ABE53"/>
<path d="M94.8918 61.5637L94.8119 55.4149C94.7862 53.4401 94.2433 6.97519 99.5984 0.844114C99.8029 0.586148 100.052 0.378171 100.331 0.232998C100.609 0.0878251 100.911 0.00852938 101.218 0C101.516 0.00137094 101.809 0.0818494 102.074 0.234908C102.339 0.387966 102.568 0.609299 102.743 0.880966C106.864 6.83483 97.3164 50.6243 96.2139 55.598L94.8918 61.5637ZM101.218 1.60589C101.147 1.60589 100.932 1.60589 100.613 1.97129C97.0758 6.02052 96.2549 32.958 96.207 48.8C100.127 29.923 104.123 5.48339 101.621 1.86936C101.579 1.79045 101.52 1.72486 101.45 1.67877C101.379 1.63267 101.299 1.60759 101.218 1.60589Z" fill="#3F3D56"/>
<path d="M141.789 57.812C141.789 57.812 146.06 45.7678 150.33 48.9796C154.601 52.1914 141.789 57.812 141.789 57.812Z" fill="#8ABE53"/>
<path d="M101.22 164.604C101.22 164.604 95.5258 211.977 106.202 211.174C116.879 210.371 101.22 164.604 101.22 164.604Z" fill="#8ABE53"/>
<path d="M131.004 153.83C131.004 153.83 125.548 143.573 125.548 136.392C125.548 136.392 116.001 125.109 118.728 122.032C121.456 118.955 127.367 130.751 127.367 130.751C127.367 130.751 116.455 116.903 119.638 114.852C122.82 112.8 133.277 128.186 133.277 128.186L136.914 126.135C136.914 126.135 129.189 104.641 134.641 104.081C137.142 103.825 142.825 124.596 142.825 124.596L148.735 141.521C148.735 141.521 151.008 147.676 150.099 151.266C149.545 153.461 149.09 155.686 148.735 157.933L131.004 153.83Z" fill="#FFB9B9"/>
<path opacity="0.1" d="M145.099 156.394C145.099 156.394 148.282 150.753 147.13 142.138C145.978 133.524 139.644 128.699 139.644 128.699C139.644 128.699 135.552 132.289 139.644 141.521C139.644 141.521 134.643 146.65 138.734 154.856" fill="black"/>
<path d="M146.916 156.394C146.916 156.394 150.098 150.753 148.947 142.138C147.795 133.524 141.46 128.699 141.46 128.699C141.46 128.699 137.368 132.289 141.46 141.521C141.46 141.521 136.459 146.65 140.551 154.856" fill="#FFB9B9"/>
<path opacity="0.1" d="M134.415 127.93L131.914 123.571C131.914 123.571 120.093 121.519 121.457 126.135C122.821 130.751 128.277 128.699 128.277 128.699L131.459 132.289L134.415 127.93Z" fill="black"/>
<path d="M136.461 127.674L132.824 122.032C132.824 122.032 121.003 119.98 122.367 124.596C123.731 129.212 129.187 127.161 129.187 127.161L132.37 130.751L136.461 127.674Z" fill="#FFB9B9"/>
<path d="M220.797 195.116L218.523 215.631L253.986 218.195V193.578L220.797 195.116Z" fill="#FFB9B9"/>
<path d="M319.001 310L290.242 245.116C288.524 238.698 283.159 228.245 266.49 221.529L253.987 209.598L244.667 209.22L207.386 203.066C207.386 203.066 178.744 201.014 160.103 213.836L155.102 211.272C155.102 211.272 146.919 178.448 150.556 154.856L129.642 152.804C129.642 152.804 118.276 208.707 123.732 225.632C129.187 242.557 149.192 254.866 149.192 254.866L166.923 274.868L173.743 309.743H280.129L281.822 300.593L290.131 309.743L319.001 310Z" fill="#CFCCE0"/>
<path d="M278.79 193.581C245.294 203.784 212.373 204.505 180.147 193.738C176.359 192.472 173.77 188.72 173.77 184.462V78.2681C173.77 73.5165 176.975 69.4633 181.342 68.6906C211.742 63.3125 243.946 63.7291 277.629 68.8913C282.08 69.5734 285.383 73.6732 285.383 78.4989V184.237C285.383 188.585 282.686 192.394 278.79 193.581Z" fill="#CFCCE0"/>
<path d="M209.713 120.912C209.713 120.912 202.009 108.21 206.75 104.868C211.491 101.525 218.603 110.885 218.603 110.885C218.603 110.885 227.492 102.194 232.233 105.536C236.974 108.879 227.492 120.912 227.492 120.912C227.492 120.912 234.604 122.918 235.196 128.266C235.789 133.614 238.159 147.653 228.085 148.322C222.688 148.68 219.672 146.928 218.034 145.223C217.438 144.621 216.669 144.283 215.869 144.272C215.069 144.261 214.292 144.579 213.684 145.165C210.268 148.412 204.115 152.155 199.639 142.974C197.861 128.935 209.713 120.912 209.713 120.912Z" fill="#3F3D56"/>
<path d="M266.604 122.249C266.604 122.249 274.308 109.547 269.567 106.205C264.826 102.862 257.714 112.221 257.714 112.221C257.714 112.221 248.825 103.531 244.084 106.873C239.343 110.216 248.825 122.249 248.825 122.249C248.825 122.249 241.714 124.255 241.121 129.603C240.528 134.951 238.158 148.99 248.232 149.659C253.63 150.017 256.646 148.265 258.283 146.56C258.879 145.958 259.648 145.62 260.448 145.609C261.248 145.598 262.025 145.916 262.633 146.502C266.049 149.749 272.202 153.492 276.678 144.311C278.456 130.272 266.604 122.249 266.604 122.249Z" fill="#3F3D56"/>
<path d="M200.351 156.965C200.351 156.965 211.468 167.062 235.173 166.425C258.879 165.789 266.545 164.697 271.612 158.394C276.679 152.091 278.181 159.371 276.608 164.143C275.034 168.915 273.013 177.058 261.204 178.378C253.429 179.247 236.626 179.453 226.051 179.492C217.831 179.569 209.704 177.529 202.289 173.529C202.191 173.475 202.093 173.421 201.996 173.367C199.746 172.114 197.852 170.176 196.528 167.772C195.203 165.369 194.501 162.595 194.5 159.765C194.501 157.516 194.852 156.301 196.15 155.858C198.488 155.06 200.351 156.965 200.351 156.965Z" fill="#3F3D56"/>
<path d="M234.366 203.223C216.248 203.233 198.232 200.15 180.932 194.079C178.792 193.339 176.919 191.843 175.59 189.811C174.261 187.78 173.546 185.32 173.551 182.795V58.3888C173.544 55.5878 174.422 52.8758 176.029 50.7402C177.636 48.6047 179.865 47.1857 182.316 46.7384C214.965 40.668 251.116 40.7468 289.766 46.9723C292.254 47.3868 294.528 48.7939 296.175 50.9383C297.822 53.0826 298.733 55.822 298.742 58.6591V182.532C298.733 185.103 297.984 187.602 296.607 189.651C295.231 191.701 293.302 193.191 291.111 193.898C272.184 199.957 253.473 203.093 235.497 203.219C235.122 203.221 234.742 203.223 234.366 203.223ZM233.107 43.1154C216.138 43.0515 199.194 44.5509 182.442 47.5987C180.171 48.0129 178.107 49.3271 176.619 51.305C175.131 53.2828 174.317 55.7947 174.324 58.3888V182.795C174.319 185.134 174.982 187.412 176.213 189.294C177.444 191.176 179.179 192.561 181.162 193.246C215.703 205.376 252.624 205.313 290.899 193.059C292.929 192.405 294.716 191.025 295.991 189.126C297.266 187.228 297.96 184.914 297.969 182.532V58.6591C297.961 56.0315 297.117 53.4944 295.592 51.5084C294.067 49.5224 291.961 48.2191 289.657 47.8351C270.929 44.7573 252.032 43.1801 233.107 43.1154Z" fill="#3F3D56"/>
<path d="M230.731 61.561C222.217 61.561 214.932 61.1303 208.967 60.5465C190.206 58.7108 180.096 55.006 179.996 54.9688L180.238 54.1409C180.338 54.1779 190.386 57.8569 209.07 59.6815C226.314 61.3661 254.651 61.7692 291.715 54.126L291.854 54.9837C267.504 60.0048 246.905 61.561 230.731 61.561Z" fill="#3F3D56"/>
</g>
<defs>
<clipPath id="clip0_1623_4120">
<rect width="319" height="310" fill="white"/>
</clipPath>
</defs>
</svg>
