<svg width="365" height="284" viewBox="0 0 365 284" fill="none" xmlns="http://www.w3.org/2000/svg">
<g clip-path="url(#clip0_1811_1699)">
<path d="M295.388 180.708C295.715 180.741 296.042 180.664 296.327 180.488C296.612 180.312 296.84 180.045 296.98 179.723C297.12 179.402 297.166 179.041 297.112 178.69C297.057 178.34 296.904 178.016 296.674 177.762C296.641 177.587 296.618 177.46 296.585 177.285C296.601 177.248 296.617 177.211 296.633 177.174C296.999 176.345 297.582 175.653 298.309 175.184C299.036 174.714 299.874 174.488 300.719 174.534C301.564 174.58 302.377 174.896 303.057 175.443C303.737 175.989 304.253 176.741 304.54 177.605C305.689 181.052 307.19 184.523 307.442 188.12C307.553 189.71 307.409 191.308 307.017 192.844C310.363 185.803 312.276 178.064 312.625 170.15C312.711 168.164 312.695 166.174 312.576 164.19C312.477 162.564 312.313 160.945 312.083 159.335C310.825 150.599 307.677 142.311 302.897 135.151C300.502 133.572 298.611 131.233 297.479 128.451C297.068 127.451 296.793 126.391 296.662 125.305C296.937 125.359 297.218 125.397 297.494 125.431C297.58 125.44 297.671 125.45 297.757 125.459L297.79 125.462C298.094 125.493 298.399 125.427 298.669 125.273C298.94 125.119 299.163 124.884 299.313 124.595C299.463 124.306 299.533 123.977 299.515 123.646C299.496 123.315 299.39 122.997 299.209 122.731C299.096 122.565 298.983 122.399 298.87 122.233C298.699 121.977 298.523 121.726 298.352 121.47C298.332 121.446 298.313 121.42 298.296 121.393C298.099 121.101 297.902 120.815 297.705 120.523C298.114 119.899 298.65 119.387 299.272 119.025C301.423 117.799 304.274 118.868 305.698 121.001C307.128 123.135 307.29 126.035 306.653 128.578C306.041 130.739 305.095 132.771 303.855 134.587C303.961 134.75 304.073 134.909 304.18 135.073C306.132 138.077 307.808 141.281 309.185 144.64C308.974 140.944 309.573 137.247 310.935 133.852C312.303 130.693 314.724 128.097 316.874 125.415C319.456 122.194 324.393 123.906 324.641 128.168C324.643 128.209 324.645 128.25 324.648 128.292C324.338 128.461 324.035 128.642 323.737 128.835C323.363 129.08 323.066 129.441 322.884 129.873C322.703 130.304 322.646 130.785 322.72 131.252C322.795 131.719 322.997 132.151 323.302 132.491C323.606 132.831 323.998 133.063 324.427 133.157L324.47 133.167C324.312 134.341 324.072 135.501 323.752 136.636C322.831 139.802 321.316 142.728 319.304 145.229C317.292 147.731 314.825 149.754 312.059 151.172C311.878 151.262 311.701 151.352 311.52 151.437C312.843 156.203 313.59 161.137 313.741 166.113C313.822 169.048 313.683 171.985 313.328 174.896L313.346 174.794C314.067 171.573 315.79 168.721 318.223 166.72C321.835 163.793 326.8 162.899 330.66 160.594C331.071 160.337 331.541 160.212 332.015 160.234C332.489 160.257 332.948 160.426 333.336 160.723C333.724 161.019 334.026 161.429 334.207 161.906C334.387 162.382 334.438 162.905 334.354 163.412C334.348 163.448 334.341 163.484 334.334 163.52C333.764 163.739 333.207 163.997 332.666 164.291C332.357 164.46 332.054 164.642 331.756 164.834C331.382 165.079 331.085 165.441 330.903 165.872C330.722 166.303 330.664 166.784 330.739 167.252C330.814 167.719 331.016 168.151 331.321 168.491C331.625 168.831 332.017 169.063 332.445 169.157L332.489 169.166C332.521 169.173 332.548 169.179 332.58 169.186C331.517 171.616 330.078 173.829 328.324 175.729C326.159 178.026 323.585 179.819 320.76 180.998C317.934 182.177 314.916 182.717 311.892 182.585L311.887 182.585C310.9 186.416 309.549 190.125 307.856 193.653L295.179 193.012C295.14 192.857 295.106 192.697 295.072 192.542C296.242 192.681 297.423 192.665 298.589 192.492C297.702 191.192 296.816 189.882 295.929 188.581C295.909 188.557 295.891 188.531 295.873 188.504C295.424 187.839 294.969 187.178 294.52 186.513L294.52 186.512C294.578 184.545 294.87 182.594 295.388 180.708L295.388 180.708Z" fill="#F2F2F2"/>
<path d="M39.9589 61.6973C39.6351 61.7519 39.3037 61.6972 39.0095 61.5405C38.7153 61.3839 38.4725 61.1328 38.3142 60.8213C38.1558 60.5099 38.0895 60.1531 38.1241 59.7993C38.1588 59.4455 38.2928 59.1119 38.5079 58.8436C38.5307 58.666 38.547 58.5384 38.5697 58.3608C38.5516 58.3249 38.5334 58.289 38.5151 58.2531C38.1031 57.4511 37.4819 56.7993 36.7297 56.3793C35.9774 55.9594 35.1276 55.7901 34.2871 55.8928C33.4465 55.9955 32.6526 56.3655 32.0052 56.9565C31.3577 57.5474 30.8856 58.3329 30.648 59.2143C29.6979 62.7321 28.3969 66.2972 28.3499 69.9036C28.3297 71.4977 28.5645 73.0834 29.0436 74.5904C25.3029 67.7874 22.9533 60.1907 22.154 52.3154C21.9554 50.339 21.8587 48.3521 21.8643 46.3639C21.8703 44.7339 21.9423 43.1077 22.0802 41.4852C22.8377 32.6811 25.5082 24.1976 29.8721 16.7315C32.1723 14.9943 33.9266 12.5334 34.8988 9.68032C35.2517 8.65434 35.466 7.5783 35.535 6.48566C35.2631 6.55751 34.9852 6.61515 34.7113 6.66735C34.6259 6.68238 34.5359 6.69798 34.4505 6.71305L34.4183 6.71846C34.1166 6.76903 33.8079 6.72385 33.5293 6.58837C33.2507 6.45288 33.0141 6.23287 32.8481 5.95481C32.682 5.67675 32.5935 5.3525 32.5932 5.0211C32.5929 4.6897 32.6809 4.36529 32.8465 4.0869C32.9497 3.9137 33.0529 3.74058 33.1562 3.56754C33.3125 3.30069 33.4738 3.03824 33.6301 2.77144C33.6486 2.74566 33.6658 2.71874 33.6815 2.69082C33.8615 2.38642 34.0419 2.08695 34.2219 1.78254C33.7781 1.18758 33.2137 0.711945 32.5728 0.392728C30.3553 -0.686615 27.5713 0.571027 26.2705 2.79603C24.9653 5.02153 24.9682 7.92719 25.749 10.423C26.4828 12.5385 27.543 14.5029 28.8841 16.2322C28.7868 16.4027 28.6845 16.5687 28.5872 16.7392C26.8096 19.8682 25.3188 23.1788 24.1361 26.6235C24.1367 22.9208 23.3276 19.2709 21.7753 15.9739C20.2302 12.9129 17.6656 10.4841 15.3678 7.95143C12.6076 4.90936 7.77714 6.94965 7.77237 11.2197C7.77232 11.261 7.77237 11.3023 7.77252 11.3436C8.09101 11.492 8.40429 11.6524 8.71236 11.8248C9.09965 12.0441 9.41689 12.3852 9.62254 12.8035C9.82818 13.2219 9.91263 13.6979 9.86482 14.1692C9.817 14.6406 9.63917 15.0853 9.3546 15.445C9.07003 15.8047 8.692 16.0627 8.27005 16.1852L8.22684 16.1978C8.45137 17.3593 8.7569 18.5006 9.1408 19.6118C10.2411 22.7105 11.9192 25.5291 14.0698 27.8908C16.2205 30.2525 18.7973 32.1064 21.6389 33.3362C21.8251 33.4136 22.0068 33.4914 22.1925 33.5639C21.1431 38.4104 20.6786 43.3845 20.8107 48.361C20.8973 51.2961 21.2023 54.2187 21.7229 57.1003L21.699 56.9988C20.7961 53.8328 18.9144 51.102 16.3718 49.2677C12.5998 46.5886 7.59402 46.0292 3.60986 43.9881C3.18515 43.7583 2.70875 43.6651 2.23685 43.7196C1.76496 43.774 1.31725 43.9739 0.946531 44.2955C0.575815 44.6171 0.297552 45.0472 0.144564 45.5349C-0.00842428 46.0226 -0.029759 46.5476 0.0830786 47.048C0.0917038 47.0835 0.100419 47.1191 0.109218 47.1546C0.690734 47.335 1.26132 47.5547 1.81768 47.8122C2.13617 47.9605 2.44945 48.1209 2.75752 48.2933C3.1448 48.5126 3.46205 48.8537 3.6677 49.2721C3.87334 49.6904 3.95778 50.1665 3.90997 50.6378C3.86216 51.1091 3.68432 51.5538 3.39975 51.9135C3.11518 52.2733 2.73715 52.5313 2.3152 52.6538L2.27196 52.6663C2.24081 52.675 2.21416 52.6831 2.18305 52.6918C3.3816 55.0458 4.94444 57.1582 6.80311 58.9366C9.09427 61.0845 11.7654 62.7016 14.6527 63.6889C17.54 64.6762 20.5826 65.0128 23.5939 64.6782L23.5985 64.6777C24.8015 68.435 26.3609 72.0465 28.2516 75.4539L40.868 73.964C40.898 73.8065 40.9229 73.6446 40.9484 73.4876C39.7886 73.7052 38.6086 73.7678 37.4348 73.6741C38.2459 72.3165 39.056 70.9492 39.8671 69.5917C39.8857 69.5659 39.9029 69.539 39.9186 69.5111C40.3294 68.8168 40.7453 68.1269 41.1562 67.4327L41.1563 67.4319C40.9857 65.4726 40.5833 63.5453 39.9593 61.6976L39.9589 61.6973Z" fill="#F2F2F2"/>
<path d="M214.265 56.6216C214.89 56.8081 215.469 57.141 215.962 57.5969C216.455 58.0527 216.85 58.6204 217.119 59.2599C217.389 59.8995 217.525 60.5953 217.52 61.2984C217.515 62.0016 217.368 62.6949 217.089 63.3295L223.859 71.5013L220.288 77.1792L210.877 65.4933C209.926 64.9141 209.203 63.9763 208.847 62.8576C208.49 61.7389 208.524 60.517 208.941 59.4234C209.359 58.3299 210.132 57.4406 211.113 56.9243C212.094 56.4079 213.216 56.3002 214.265 56.6216Z" fill="#A0616A"/>
<path d="M277.647 76.6872C277.037 75.6087 276.236 74.6717 275.291 73.9297C274.347 73.1878 273.277 72.6557 272.142 72.3638C271.008 72.0719 269.831 72.0261 268.68 72.2289C267.529 72.4317 266.427 72.8792 265.435 73.5457L243.17 88.517L219.152 66.3521L213.176 72.3924L239.709 109.766L274.194 90.2487C273.389 90.7042 278.619 78.4057 277.647 76.6872Z" fill="#CCCCCC"/>
<path d="M233.538 126.468C233.54 138.406 231.376 150.229 227.169 161.259C222.962 172.289 216.794 182.312 209.018 190.753C201.242 199.195 192.011 205.891 181.85 210.459C171.69 215.026 160.801 217.376 149.804 217.374C103.56 217.374 66.0703 176.673 66.0703 126.468C66.0624 116.702 67.5043 106.999 70.3408 97.7315C75.9096 79.6322 86.5783 63.8915 100.838 52.735C115.098 41.5786 132.227 35.5711 149.804 35.562C164.963 35.5563 179.839 40.0198 192.844 48.476C205.848 56.9322 216.494 69.0637 223.644 83.5754C225.416 87.1558 226.963 90.8629 228.272 94.671C228.454 95.2013 228.63 95.7315 228.803 96.2669V96.272C229.57 98.6254 230.246 101.023 230.831 103.464C232.634 110.975 233.544 118.706 233.538 126.468Z" fill="#3F3D56"/>
<path d="M140.644 65.1345C136.881 62.9253 132.703 61.6782 128.429 61.4884C124.155 61.2985 119.897 62.1709 115.98 64.039C112.532 65.6683 108.9 68.5912 107.75 73.8693C112.403 70.8882 118.426 75.5983 119.623 83.1542L119.343 83.2379C118.711 88.4714 120.123 94.1693 122.856 97.4145C123.215 94.0437 125.256 91.7496 127.264 90.3165C129.272 88.8834 131.493 87.8424 133.026 85.3791C134.843 82.4589 135.305 78.1909 136.026 74.2975C136.748 70.4041 138.118 66.2194 140.644 65.1345Z" fill="white"/>
<path d="M114.602 109.671C113.313 111.771 111.592 113.09 110.048 114.731C108.508 116.377 107.042 118.599 106.735 121.453C106.54 123.281 106.842 125.14 106.801 126.988C106.759 128.836 106.191 130.917 105.033 131.377C103.205 132.094 101.809 128.407 99.9297 128.15C98.4364 127.948 97.0921 130.498 97.5247 132.71C97.9573 134.922 99.9902 135.902 101.158 134.458C102.214 136.382 101.469 139.872 99.8832 140.462C99.7157 141.674 99.5483 142.881 99.3854 144.094C95.3755 141.048 91.3237 137.952 87.9139 133.493C84.1216 128.575 81.7695 122.539 81.1594 116.16C80.7175 111.034 81.3734 105.171 79.2056 101.226C77.4704 98.07 74.4932 97.373 71.8137 97.57C71.3253 97.6053 70.8322 97.6659 70.3438 97.7316C71.924 92.579 73.9309 87.5925 76.34 82.8331C76.8852 82.579 77.3918 82.2368 77.8425 81.818C80.336 79.5201 81.4431 74.8687 83.4667 71.6517C83.597 71.4446 83.7319 71.2426 83.8714 71.0456C85.9415 68.1114 88.714 66.6013 91.3935 65.1973C97.3247 62.0712 103.428 58.9046 109.689 59.339L107.908 59.5258C105.828 65.8488 103.747 72.1718 101.665 78.4949C101.349 79.4645 101.029 80.4358 100.707 81.4089C99.525 85.0047 98.3062 88.8329 98.4877 92.858C98.5946 95.2417 99.3575 97.7871 100.809 98.6052C102.163 99.3628 103.642 98.4336 104.949 97.5144C105.503 97.1305 106.052 96.7467 106.605 96.3578C108.592 94.969 110.792 93.5448 112.89 94.4741C114.811 95.3225 116.23 98.1557 116.5 101.211C116.747 104.181 116.08 107.157 114.602 109.671Z" fill="white"/>
<path d="M126.414 152.839C120.613 148.961 114.811 145.083 109.01 141.206L109.108 140.93C105.501 142.422 104.004 149.383 104.6 155.075C105.196 160.767 107.217 165.856 108.238 171.403C109.615 178.993 109.096 186.845 106.733 194.144C114.362 184.851 121.113 174.752 126.885 163.997C127.692 162.641 128.306 161.162 128.708 159.609C129.077 157.956 129.02 155.969 128.282 154.644C127.807 153.883 127.165 153.263 126.414 152.839Z" fill="white"/>
<path d="M103.516 82.2884C102.9 83.7921 102.663 85.7972 103.222 87.3531C103.793 88.9421 105 89.6602 106.111 90.2581L109.316 91.983C110.383 92.5569 111.532 93.1365 112.619 92.6644C113.931 92.0949 114.84 89.8632 114.605 87.7914C114.354 85.5867 113.074 84.0701 111.89 82.7787C110.234 80.9714 108.577 79.1642 106.92 77.3569L105.987 78.5985C104.977 79.6679 104.141 80.9156 103.516 82.2884Z" fill="white"/>
<path d="M216.357 105.857C217.799 106.226 219.241 106.595 220.683 106.963C220.432 112.251 218.018 117.145 214.78 118.918C213.431 119.655 211.928 119.928 210.812 121.306C209.802 122.559 209.291 124.508 208.821 126.372C207.997 129.624 207.174 132.877 206.351 136.129C205.467 139.634 204.332 143.528 202.034 144.79C200.061 145.876 197.805 144.548 196.289 142.321C194.772 140.094 193.846 137.099 192.949 134.18C193.004 137.361 191.641 140.483 189.711 141.589C187.776 142.695 185.422 141.695 184.129 139.225C183.198 137.452 182.812 135.114 181.9 133.316C180.989 131.518 179.077 130.488 178.081 132.175C177.425 133.296 177.509 135.013 177.183 136.437C176.676 138.649 175.141 140.038 173.62 140.159C172.103 140.281 170.624 139.331 169.354 138.043C166.735 135.377 164.805 131.144 164.056 126.443C163.725 124.347 163.632 122.064 164.205 120.099C164.777 118.135 166.158 116.62 167.531 116.993C168.433 114.923 166.651 112.175 165.047 112.418C163.437 112.66 162.176 114.534 160.855 115.973C159.539 117.413 157.697 118.458 156.371 117.029C156.38 118.357 155.385 119.236 154.524 119.125C153.668 119.019 152.905 118.271 152.119 117.741C149.081 115.685 145.225 117.049 143.066 120.938C144.415 114.706 146.393 107.554 150.537 106.09C152.231 105.489 154.077 105.984 155.678 104.943C158.511 103.1 159.083 96.1356 156.636 93.2619C156.948 95.979 156.887 99.1506 155.566 101.009C154.245 102.868 151.472 101.656 151.64 98.9082C151.258 100.802 149.36 101.09 148.486 99.6354C147.607 98.181 147.681 95.8023 148.304 94.0649C148.928 92.3276 149.988 91.0802 151.016 89.8832C153.226 87.3126 155.468 84.7117 158.027 83.0956C160.59 81.4795 163.549 80.9341 166.116 82.5401C167.47 83.3885 168.661 84.8026 170.043 85.5501C171.424 86.3026 173.178 86.2066 174.095 84.4491C175.123 82.4896 174.639 79.5806 175.02 77.1312C175.704 72.8031 179.691 70.7779 181.9 73.6363C180.249 73.1768 178.542 75.2979 178.337 77.8685C178.128 80.4391 179.323 83.035 180.923 83.8128C183.612 85.1056 186.245 81.8532 188.278 78.8432C190.399 75.6918 192.524 72.5421 194.651 69.3941C194.991 68.8581 195.372 68.3546 195.791 67.8891C196.457 67.184 197.345 66.7802 198.276 66.7596C199.206 66.739 200.109 67.103 200.801 67.778C202.95 69.6819 203.96 73.5859 205.723 76.2726C208.281 80.1765 212.11 81.126 215.673 81.8835C218.329 82.4441 220.987 83.0081 223.646 83.5754C225.419 87.1558 226.966 90.8629 228.275 94.671C223.772 96.7467 219.618 100.63 216.357 105.857Z" fill="white"/>
<path d="M224.944 166.623C222.951 171.016 220.632 175.227 218.012 179.213C216.338 178.436 214.537 179.824 212.97 181.127C211.332 182.491 209.364 183.819 207.685 182.577C205.969 181.304 205.415 177.744 205.959 174.921C206.503 172.102 207.862 169.86 209.178 167.729C210.574 165.466 212.067 163.118 214.007 162.239C215.951 161.36 218.449 162.603 219.017 165.603L220.394 165.552C219.622 164.401 220.027 162.017 221.064 161.598C222.259 161.108 223.297 162.891 224.004 164.466C224.32 165.178 224.641 165.896 224.944 166.623Z" fill="white"/>
<path d="M172.207 145.291C169.248 145.493 166.903 141.537 165.345 137.646C163.788 133.754 162.366 129.304 159.696 127.324C158.17 126.192 156.43 126.037 154.775 125.488C153.12 124.94 151.387 123.805 150.596 121.494L148.719 120.67C146.239 122.184 143.727 123.725 141.591 126.188C139.194 128.952 137.702 132.494 137.343 136.269C136.984 140.349 138.309 144.898 140.783 146.431C142.739 147.642 145.015 146.879 146.996 147.987C149.47 149.373 150.94 153.396 151.496 157.369C152.052 161.342 151.911 165.471 152.309 169.488C152.707 173.506 153.803 177.687 156.073 179.746C158.912 182.323 163.079 180.182 164.353 175.491C164.978 173.191 164.957 170.595 165.424 168.206C166.247 164.001 168.469 160.88 170.231 157.43C171.992 153.98 173.379 149.295 172.207 145.291Z" fill="white"/>
<path d="M142.962 103.963C143.238 104.239 143.495 104.536 143.733 104.852C143.978 105.311 144.103 105.834 144.095 106.365C144.087 106.897 143.945 107.415 143.685 107.865C144.042 107.843 144.39 107.741 144.709 107.565C145.027 107.39 145.308 107.144 145.535 106.845C146.075 106.177 146.55 105.45 146.953 104.676C147.255 104.142 147.576 103.419 147.371 102.785C147.231 102.351 146.9 102.166 146.669 101.841C146.301 101.324 146.21 100.504 146.02 99.7954C145.609 98.2646 144.626 97.139 143.558 96.978L143.706 97.0088C143.26 97.1748 142.948 97.9439 143.047 98.6359C143.137 99.2661 143.51 99.7893 143.473 100.432C143.419 101.356 142.568 101.79 142.516 102.714C142.508 103.178 142.668 103.627 142.962 103.963Z" fill="white"/>
<path d="M137.891 88.2567C137.895 88.2554 137.899 88.2552 137.904 88.2539C137.995 88.1639 138.079 88.0662 138.156 87.9619L137.891 88.2567Z" fill="#E6E6E6"/>
<path d="M138.775 92.595C139.43 92.1382 139.795 90.8747 139.579 89.8172C139.364 88.7663 138.603 88.0597 137.901 88.2538C137.697 88.4779 137.445 88.6421 137.166 88.731C136.888 88.8199 136.594 88.8306 136.311 88.762C135.877 88.6407 135.401 88.3284 135.024 88.6833C134.809 88.9484 134.658 89.2678 134.586 89.6124C134.447 90.0767 134.307 90.5409 134.168 91.0051C134.102 91.1713 134.085 91.3557 134.119 91.5329C134.145 91.6039 134.188 91.6663 134.244 91.7141C134.299 91.7618 134.365 91.7933 134.434 91.8055C135.27 92.073 136.106 92.3405 136.942 92.608C137.551 92.803 138.209 92.9908 138.775 92.595Z" fill="white"/>
<path d="M201.875 152.492C201.489 151.805 201.102 151.118 200.716 150.431C200.336 149.636 199.818 148.929 199.188 148.349C199.05 148.224 198.89 148.129 198.718 148.071C198.545 148.014 198.364 147.994 198.184 148.014C198.005 148.033 197.831 148.091 197.672 148.185C197.514 148.279 197.374 148.406 197.262 148.559L197.309 148.951C198.189 150.151 199.121 151.483 199.345 153.263C199.433 153.965 199.402 154.692 199.479 155.397C199.556 156.101 199.776 156.832 200.195 157.136C200.803 157.578 201.518 156.927 201.951 156.133C202.338 155.481 202.512 154.707 202.444 153.934C202.347 153.416 202.154 152.925 201.875 152.492Z" fill="white"/>
<path d="M219.071 126.264C219.182 125.468 219.294 124.673 219.406 123.877C219.587 123.004 219.61 122.1 219.472 121.217C219.441 121.024 219.375 120.84 219.277 120.675C219.179 120.51 219.052 120.369 218.903 120.258C218.754 120.147 218.587 120.07 218.41 120.031C218.233 119.992 218.051 119.992 217.874 120.03L217.677 120.363C217.64 121.896 217.562 123.567 216.677 125.085C216.328 125.684 215.874 126.218 215.515 126.811C215.156 127.405 214.89 128.117 215.03 128.643C215.234 129.406 216.167 129.408 216.969 129.103C217.652 128.875 218.244 128.404 218.65 127.765C218.884 127.301 219.027 126.79 219.071 126.264Z" fill="#E6E6E6"/>
<path d="M207.938 153.385C208.127 152.796 207.854 152.119 207.797 151.468C207.769 150.626 207.975 149.795 208.387 149.082C208.796 148.409 209.106 147.67 209.306 146.894C209.39 146.54 209.375 146.167 209.262 145.822C209.134 145.51 208.824 145.368 208.647 145.615L209.027 145.881C208.513 145.781 207.986 145.809 207.484 145.962C207.197 146.081 206.941 146.273 206.738 146.522C206.534 146.772 206.389 147.07 206.314 147.393C206.251 147.897 206.149 148.394 206.008 148.878C205.781 149.384 205.342 149.553 205.066 149.997C204.878 150.391 204.783 150.829 204.789 151.273C204.796 151.716 204.904 152.151 205.105 152.538C205.451 153.171 206.002 153.641 206.65 153.857C207.114 154.038 207.726 154.048 207.938 153.385Z" fill="white"/>
<path d="M218.73 156.921C218.898 157.395 219.123 157.843 219.399 158.253C219.916 158.818 220.618 158.471 221.245 158.334C221.814 158.236 222.396 158.308 222.931 158.54C223.465 158.773 223.932 159.159 224.281 159.656C224.038 158.34 223.507 157.106 222.734 156.058C221.96 155.011 220.967 154.18 219.836 153.636C218.359 152.982 216.802 152.919 215.265 152.86L215 152.934C215.676 155.071 217.8 155.024 218.73 156.921Z" fill="white"/>
<path d="M173.016 161.293L173.02 161.302C173.045 161.248 173.071 161.194 173.097 161.141L173.016 161.293Z" fill="#E6E6E6"/>
<path d="M171.38 164.734C171.023 165.438 170.716 166.17 170.462 166.925C170.125 168.147 169.902 169.403 169.796 170.673C169.713 171.396 169.687 172.318 170.104 172.67C170.224 172.757 170.368 172.793 170.511 172.772C170.653 172.751 170.783 172.674 170.878 172.556C171.109 172.29 171.299 171.984 171.438 171.651C172.258 170.119 172.894 168.48 173.332 166.773C173.731 164.975 173.727 162.859 173.022 161.302C172.475 162.446 171.927 163.59 171.38 164.734Z" fill="white"/>
<path d="M155.583 73.0622C155.843 73.3382 156.172 73.5255 156.529 73.6012C156.886 73.6768 157.255 73.6374 157.592 73.4878C158.289 73.157 158.928 72.6984 159.482 72.1322C159.941 71.7638 160.33 71.3031 160.628 70.7751C160.793 70.4596 160.898 70.1119 160.938 69.7521C160.978 69.3923 160.953 69.0274 160.863 68.6783C160.604 67.8563 159.947 67.5808 159.367 67.3942C158.44 67.0956 157.512 66.7969 156.584 66.4982L157.255 65.8415C156.565 65.4392 155.801 66.1859 155.369 67.1103C155.093 67.7138 154.9 68.3586 154.797 69.0235C154.566 70.4744 154.792 72.2022 155.583 73.0622Z" fill="#E6E6E6"/>
<path d="M171.962 67.0928C172.224 67.4057 172.585 67.5989 172.973 67.6332C173.361 67.6675 173.746 67.5402 174.051 67.2773C174.313 67.0635 174.531 66.7921 174.69 66.4808C174.849 66.1696 174.946 65.8254 174.975 65.4707C175.04 64.6785 174.68 63.7979 174.164 63.7295L174.282 62.9877C173.289 62.7931 172.068 62.7541 171.536 64.0629C171.356 64.5643 171.301 65.1079 171.376 65.6396C171.451 66.1713 171.653 66.6724 171.962 67.0928Z" fill="#E6E6E6"/>
<path d="M169.773 27.6473C163.954 26.9345 158.111 28.761 153.532 32.7247C148.952 36.6885 146.011 42.4649 145.354 48.7833C143.987 61.9405 150.372 90.5118 162.013 102.339C167.494 79.6789 186.701 66.2382 189.242 54.1578C191.958 41.2495 181.893 29.1314 169.773 27.6473Z" fill="#8ABE53"/>
<path d="M165.749 56.8969C169.726 56.8969 172.951 53.3963 172.951 49.0781C172.951 44.7599 169.726 41.2593 165.749 41.2593C161.771 41.2593 158.547 44.7599 158.547 49.0781C158.547 53.3963 161.771 56.8969 165.749 56.8969Z" fill="white"/>
<path d="M158.174 113.612C160.779 113.612 162.891 111.32 162.891 108.491C162.891 105.663 160.779 103.37 158.174 103.37C155.569 103.37 153.457 105.663 153.457 108.491C153.457 111.32 155.569 113.612 158.174 113.612Z" fill="#8ABE53"/>
<path opacity="0.2" d="M171.708 43.4766C172.518 44.0054 173.225 44.7024 173.788 45.5278C174.35 46.3532 174.758 47.2908 174.986 48.2871C175.215 49.2833 175.261 50.3188 175.121 51.3343C174.981 52.3497 174.659 53.3254 174.172 54.2055C173.684 55.0856 173.042 55.8529 172.282 56.4636C171.522 57.0743 170.658 57.5165 169.741 57.7649C167.887 58.2665 165.926 57.9483 164.289 56.8802C165.958 57.2834 167.705 57.0284 169.217 56.161C170.729 55.2935 171.907 53.8702 172.541 52.1458C173.175 50.4214 173.222 48.5085 172.676 46.7494C172.129 44.9903 171.023 43.4999 169.557 42.5449C170.315 42.7275 171.042 43.0421 171.708 43.4766Z" fill="#231F20"/>
<path opacity="0.2" d="M189.271 54.1827C186.73 66.2631 167.523 79.7038 162.042 102.364C160.947 101.241 159.93 100.032 159 98.7458C165.159 77.4459 183.17 64.5033 185.626 52.8315C187.823 42.385 181.65 32.4571 172.792 28.2632C183.515 31.1895 191.76 42.3535 189.271 54.1827Z" fill="#231F20"/>
<path d="M102.284 58.155C97.9131 57.6198 93.5257 58.9914 90.0867 61.968C86.6477 64.9447 84.4387 69.2826 83.9457 74.0274C82.9191 83.9081 87.7138 105.364 96.4556 114.246C100.572 97.229 114.995 87.1355 116.904 78.0636C118.943 68.3699 111.385 59.2696 102.284 58.155Z" fill="#8ABE53"/>
<path d="M99.26 80.1208C102.247 80.1208 104.668 77.492 104.668 74.2491C104.668 71.0063 102.247 68.3774 99.26 68.3774C96.273 68.3774 93.8516 71.0063 93.8516 74.2491C93.8516 77.492 96.273 80.1208 99.26 80.1208Z" fill="white"/>
<path d="M93.5737 122.712C95.5301 122.712 97.1161 120.99 97.1161 118.866C97.1161 116.742 95.5301 115.021 93.5737 115.021C91.6172 115.021 90.0312 116.742 90.0312 118.866C90.0312 120.99 91.6172 122.712 93.5737 122.712Z" fill="#8ABE53"/>
<path opacity="0.2" d="M103.735 70.0424C104.344 70.4396 104.875 70.963 105.297 71.5828C105.72 72.2027 106.026 72.9068 106.197 73.6549C106.369 74.4031 106.404 75.1807 106.299 75.9433C106.194 76.7059 105.951 77.4385 105.585 78.0995C105.22 78.7604 104.737 79.3366 104.167 79.7952C103.596 80.2539 102.947 80.5859 102.258 80.7724C101.569 80.959 100.853 80.9963 100.15 80.8823C99.4477 80.7683 98.7728 80.5052 98.1641 80.1081C99.4176 80.4108 100.73 80.2194 101.865 79.5679C103 78.9165 103.885 77.8476 104.361 76.5527C104.837 75.2577 104.873 73.8212 104.462 72.5002C104.051 71.1792 103.221 70.0599 102.12 69.3428C102.69 69.4798 103.235 69.7161 103.735 70.0424Z" fill="#231F20"/>
<path opacity="0.2" d="M116.924 78.0824C115.015 87.1543 100.592 97.2478 96.4759 114.265C95.6537 113.422 94.8901 112.513 94.1914 111.548C98.8167 95.5522 112.342 85.8328 114.186 77.0676C115.837 69.2227 111.201 61.7671 104.549 58.6177C112.601 60.8152 118.793 69.199 116.924 78.0824Z" fill="#231F20"/>
<path d="M271.611 270.859H265.673L262.848 245.993L271.612 245.993L271.611 270.859Z" fill="#A0616A"/>
<path d="M274.803 283.1H270.589L269.837 278.781L267.911 283.1H256.735C256.199 283.1 255.678 282.915 255.246 282.57C254.815 282.225 254.496 281.74 254.336 281.185C254.177 280.629 254.185 280.033 254.36 279.484C254.535 278.934 254.867 278.459 255.307 278.129L264.232 271.437V267.071L273.619 267.679L274.803 283.1Z" fill="#2F2E41"/>
<path d="M248.611 270.859H242.673L239.848 245.993L248.612 245.993L248.611 270.859Z" fill="#A0616A"/>
<path d="M251.803 283.1H247.589L246.837 278.781L244.911 283.1H233.735C233.199 283.1 232.678 282.915 232.246 282.57C231.815 282.225 231.496 281.74 231.336 281.185C231.177 280.629 231.185 280.033 231.36 279.484C231.535 278.934 231.867 278.459 232.307 278.129L241.232 271.437V267.071L250.619 267.679L251.803 283.1Z" fill="#2F2E41"/>
<path d="M226.049 205.206C227.185 207.056 239.548 257.929 239.548 257.929L250.509 259.286L249.208 246.486L247.219 223.835L244.14 208.715C244.14 208.715 255.015 181.845 255.703 179.705L256.191 178.169L259.589 211.646C259.993 212.841 260.169 214.113 260.106 215.384C260.004 217.475 261.936 248.935 261.936 248.935L262.864 260.217L272.256 261.633L276.067 242.112C279.248 235.771 277.425 213.237 276.123 211.14C274.822 209.042 275.339 194.435 275.339 194.435C277.001 193.8 286.909 157.121 281.953 157.337C282.271 155.382 282.521 153.636 282.521 153.636L273.919 146.104L252.39 140.028L246.958 137.197C246.958 137.197 237.258 156.671 237.354 157.639C237.488 158.866 237.229 160.105 236.621 161.149L226.827 196.736C226.827 196.736 224.901 203.337 226.049 205.206Z" fill="#2F2E41"/>
<path d="M280.135 77.8633L276.71 69.9688L265.053 70.4551L261.251 78.6682C261.251 78.6682 250.385 92.7586 250.033 97.3402C249.591 103.103 253.267 131.344 249.591 129.514C249.591 129.514 240.924 140.558 246.052 140.558C251.181 140.558 274.379 156.368 275.902 158.146C277.424 159.924 284.219 161.077 283.649 157.365C283.079 153.654 280.135 133.579 280.135 133.579L288.105 102.014C290.399 95.1992 291.113 87.555 285.928 82.9773L280.135 77.8633Z" fill="#CCCCCC"/>
<path d="M236.959 54.6273C235.4 53.9554 233.734 53.6235 232.057 53.6504C230.379 53.6774 228.723 54.0629 227.183 54.7847C225.643 55.5065 224.249 56.5506 223.08 57.8574C221.912 59.1641 220.992 60.7079 220.373 62.4007C217.77 69.5197 217.339 86.5203 222.183 95.0408C228.411 83.2954 241.011 78.9584 244.119 72.6341C247.44 65.8763 243.516 57.4532 236.959 54.6273Z" fill="#8ABE53"/>
<path d="M231.713 70.4497C234.014 70.4497 235.879 68.4247 235.879 65.9268C235.879 63.4288 234.014 61.4038 231.713 61.4038C229.412 61.4038 227.547 63.4288 227.547 65.9268C227.547 68.4247 229.412 70.4497 231.713 70.4497Z" fill="white"/>
<path d="M219.178 100.805C220.685 100.805 221.907 99.4789 221.907 97.8428C221.907 96.2067 220.685 94.8804 219.178 94.8804C217.671 94.8804 216.449 96.2067 216.449 97.8428C216.449 99.4789 217.671 100.805 219.178 100.805Z" fill="#8ABE53"/>
<path opacity="0.2" d="M235.824 63.7823C236.587 64.6486 237.002 65.8084 236.978 67.0068C236.954 68.2053 236.493 69.3444 235.696 70.1739C234.899 71.0033 233.831 71.4553 232.727 71.4305C231.623 71.4056 230.573 70.906 229.809 70.0414C230.684 70.5415 231.695 70.6871 232.66 70.4521C233.625 70.2171 234.482 69.6168 235.077 68.7587C235.672 67.9006 235.966 66.8407 235.907 65.7687C235.847 64.6966 235.439 63.6825 234.754 62.9077C235.151 63.1346 235.513 63.43 235.824 63.7823Z" fill="#231F20"/>
<path opacity="0.2" d="M244.133 72.6529C241.025 78.9772 228.424 83.3142 222.196 95.0596C221.742 94.2523 221.343 93.4096 221.004 92.5385C227.42 81.6642 239.284 77.4082 242.287 71.2978C244.974 65.8289 242.917 59.2697 238.559 55.4688C244.135 58.8695 247.176 66.46 244.133 72.6529Z" fill="#231F20"/>
<path d="M217.95 96.8227C218.585 96.6807 219.24 96.6915 219.87 96.8542C220.5 97.017 221.09 97.3277 221.597 97.7645C222.105 98.2014 222.518 98.7538 222.808 99.3827C223.097 100.012 223.256 100.702 223.274 101.405L232.725 105.343L231.921 112.163L218.646 106.397C217.556 106.35 216.52 105.871 215.734 105.051C214.948 104.23 214.467 103.125 214.381 101.945C214.295 100.765 214.611 99.5917 215.269 98.6476C215.927 97.7034 216.881 97.0542 217.95 96.8227Z" fill="#A0616A"/>
<path d="M283.992 82.77C282.997 82.1105 281.892 81.6707 280.74 81.4759C279.588 81.2811 278.411 81.3351 277.279 81.6349C276.146 81.9347 275.079 82.4743 274.139 83.2228C273.198 83.9713 272.403 84.9139 271.799 85.9966L258.233 110.318L227.56 102.425L224.766 110.754L264.046 130.954L283.94 96.5536C286.918 92.0093 288.377 85.6762 283.992 82.77Z" fill="#CCCCCC"/>
<path d="M284.496 52.9626C284.496 55.3068 283.967 57.6153 282.954 59.6856C281.941 61.7559 280.476 63.5245 278.686 64.8364C276.897 66.1482 274.838 66.9631 272.691 67.2095C270.544 67.4559 268.374 67.1263 266.371 66.2496C264.368 65.3729 262.595 63.9759 261.206 62.1813C259.817 60.3867 258.854 58.2492 258.404 55.9567C257.953 53.6641 258.028 51.2865 258.621 49.0326C259.214 46.7787 260.308 44.7173 261.807 43.0295L261.87 42.9609C261.976 42.8405 262.081 42.7202 262.192 42.6056C262.193 42.6056 262.193 42.6055 262.194 42.6052C262.195 42.6049 262.195 42.6045 262.196 42.604C262.196 42.6034 262.197 42.6028 262.197 42.6021C262.197 42.6014 262.197 42.6006 262.197 42.5999C262.334 42.4624 262.472 42.3249 262.614 42.1932C264.52 40.3789 266.868 39.1995 269.375 38.7962C271.883 38.3929 274.444 38.7827 276.753 39.919C279.062 41.0553 281.02 42.8899 282.393 45.2033C283.766 47.5166 284.496 50.2105 284.496 52.9626Z" fill="#2F2E41"/>
<path d="M268.057 68.2851C274.166 68.2851 279.119 62.9086 279.119 56.2763C279.119 49.6441 274.166 44.2676 268.057 44.2676C261.948 44.2676 256.996 49.6441 256.996 56.2763C256.996 62.9086 261.948 68.2851 268.057 68.2851Z" fill="#9E616A"/>
<path d="M279.803 59.7012L277.97 59.3497C276.946 59.1476 276.003 58.6109 275.268 57.8114C274.532 57.0118 274.039 55.9875 273.855 54.8755L272.066 58.1293L271.988 58.1574C267.727 59.6932 263.294 59.2339 258.438 56.755C257.05 56.04 255.703 55.2338 254.405 54.3409L254.309 54.2759L254.302 54.1538C254.054 50.2472 254.861 46.9836 256.576 44.9641C257.234 44.2042 258.033 43.604 258.919 43.2027C259.806 42.8014 260.761 42.608 261.722 42.6353C261.79 42.6159 261.853 42.5783 261.904 42.5258C261.929 42.5061 261.954 42.4866 261.978 42.4681V42.4479L262.105 42.383C262.378 42.2437 262.656 42.1103 262.935 41.9884C265.123 41.0685 267.507 40.8378 269.811 41.3226C272.115 41.8075 274.246 42.9883 275.96 44.7294C279.367 48.2608 280.93 54.1871 279.849 59.4768L279.803 59.7012Z" fill="#2F2E41"/>
<path d="M303.133 69.9326C299.369 67.8234 304.21 60.168 303.237 55.6922C302.264 51.2163 295.259 49.7767 294.813 45.2035C294.366 40.6303 293.317 35.9135 290.537 32.4434C288.761 30.2259 286.144 28.5889 283.449 28.8667C282.537 28.9607 281.655 29.2669 280.862 29.7644C280.069 30.262 279.384 30.9392 278.854 31.75C278.324 32.5608 277.961 33.4862 277.79 34.463C277.619 35.4397 277.644 36.4451 277.863 37.4105C277.096 36.2302 275.111 36.486 274.619 37.8285C274.182 39.0219 275.147 40.4675 276.283 40.5731C277.77 42.5659 279.472 44.6809 281.8 45.0829C282.171 45.1754 282.557 45.1751 282.928 45.0822C283.299 44.9892 283.645 44.806 283.942 44.5463C284.489 43.9752 284.532 42.8333 283.882 42.4064C286.809 43.6685 288.524 47.1035 288.958 50.4895C289.393 53.8754 288.792 57.3012 288.396 60.6927C288 64.0841 287.83 67.6517 289.055 70.8011C290.502 74.5221 293.834 77.189 297.47 78.0443C301.106 78.8996 304.978 78.0637 308.27 76.1804C311.561 74.297 314.305 71.4219 316.548 68.1986C312.685 71.1759 307.342 72.2913 303.133 69.9326Z" fill="#2F2E41"/>
<path d="M279.33 59.3671C279.33 59.3671 276.054 46.0887 262.008 43.024C261.992 43.0183 261.939 42.9954 261.87 42.9611C261.828 42.9324 261.775 42.9037 261.723 42.8751C261.881 42.7777 262.034 42.6919 262.192 42.6058L262.194 42.6054L262.196 42.6042L262.197 42.6023L262.198 42.6001C262.335 42.4626 262.472 42.3252 262.614 42.1934L263.015 42.2106C263.015 42.2106 277.109 39.7875 279.33 59.3671Z" fill="#FD6584"/>
<path opacity="0.2" d="M271.994 101.974L264.061 111.952L250.953 107.75L265.243 114.899L271.994 101.974Z" fill="black"/>
<path d="M319.611 283.853L197.642 284C197.503 284 197.369 283.939 197.271 283.832C197.172 283.725 197.117 283.58 197.117 283.428C197.117 283.277 197.172 283.132 197.271 283.025C197.369 282.917 197.503 282.857 197.642 282.857L319.611 282.709C319.751 282.709 319.885 282.769 319.983 282.876C320.082 282.984 320.138 283.129 320.138 283.281C320.138 283.432 320.082 283.578 319.983 283.685C319.885 283.792 319.751 283.853 319.611 283.853Z" fill="#CACACA"/>
<path d="M325.964 194.996C320.253 194.996 313.993 194.762 307.185 194.293C271.971 191.866 226.357 183.425 178.747 170.527C131.138 157.629 87.2189 141.814 55.0823 125.996C39.4276 118.29 27.4127 110.996 19.3718 104.316C10.8585 97.2441 7.13465 91.0798 8.30328 85.995C10.5803 76.089 30.7424 73.9218 47.2554 73.8481L47.261 75.2887C24.5843 75.3898 11.2062 79.3161 9.59094 86.3439C7.53335 95.295 24.3141 109.269 55.6302 124.684C87.6962 140.467 131.534 156.252 179.069 169.13C226.603 182.007 272.133 190.433 307.27 192.855C341.584 195.222 362.445 191.445 364.503 182.494C366.211 175.062 354.95 164.114 332.793 151.666L333.403 150.386C349.502 159.431 368.189 172.404 365.79 182.843C364.622 187.927 358.667 191.469 348.091 193.37C342.063 194.453 334.658 194.996 325.964 194.996Z" fill="#8ABE53"/>
</g>
<defs>
<clipPath id="clip0_1811_1699">
<rect width="365" height="284" fill="white"/>
</clipPath>
</defs>
</svg>
