<svg width="17" height="22" viewBox="0 0 17 22" fill="none" xmlns="http://www.w3.org/2000/svg">
<path fill-rule="evenodd" clip-rule="evenodd" d="M10.8 4.7C10.3272 4.7 9.85911 4.79312 9.42234 4.97403C8.98557 5.15495 8.58871 5.42012 8.25442 5.75442C7.92012 6.08871 7.65495 6.48557 7.47403 6.92234C7.29312 7.35911 7.2 7.82724 7.2 8.3C7.2 8.77276 7.29312 9.24089 7.47403 9.67766C7.65495 10.1144 7.92012 10.5113 8.25442 10.8456C8.58871 11.1799 8.98557 11.4451 9.42234 11.626C9.85911 11.8069 10.3272 11.9 10.8 11.9C11.7548 11.9 12.6705 11.5207 13.3456 10.8456C14.0207 10.1705 14.4 9.25478 14.4 8.3C14.4 7.34522 14.0207 6.42955 13.3456 5.75442C12.6705 5.07928 11.7548 4.7 10.8 4.7ZM6 8.3C6 7.02696 6.50571 5.80606 7.40589 4.90589C8.30606 4.00571 9.52696 3.5 10.8 3.5C12.073 3.5 13.2939 4.00571 14.1941 4.90589C15.0943 5.80606 15.6 7.02696 15.6 8.3C15.6 9.57304 15.0943 10.7939 14.1941 11.6941C13.2939 12.5943 12.073 13.1 10.8 13.1C9.52696 13.1 8.30606 12.5943 7.40589 11.6941C6.50571 10.7939 6 9.57304 6 8.3Z" fill="#0A0A0B"/>
<path fill-rule="evenodd" clip-rule="evenodd" d="M0 2.9C0 2.26348 0.252856 1.65303 0.702944 1.20294C1.15303 0.752856 1.76348 0.5 2.4 0.5C3.03652 0.5 3.64697 0.752856 4.09706 1.20294C4.54714 1.65303 4.8 2.26348 4.8 2.9V6.8264C4.8 8.0264 5.22 9.1868 5.988 10.1084L7.6608 12.116C7.75816 12.2387 7.80367 12.3946 7.78762 12.5504C7.77157 12.7062 7.69522 12.8496 7.57489 12.9499C7.45456 13.0501 7.29979 13.0994 7.14363 13.0871C6.98748 13.0748 6.84234 13.0019 6.7392 12.884L5.0664 10.8764C4.11875 9.73958 3.59983 8.3064 3.6 6.8264V2.9C3.6 2.58174 3.47357 2.27652 3.24853 2.05147C3.02348 1.82643 2.71826 1.7 2.4 1.7C2.08174 1.7 1.77652 1.82643 1.55147 2.05147C1.32643 2.27652 1.2 2.58174 1.2 2.9V7.4C1.20015 8.28656 1.41858 9.15945 1.836 9.9416L5.9292 17.618C5.99761 17.7577 6.00908 17.9185 5.96118 18.0666C5.91329 18.2146 5.80978 18.3382 5.67249 18.4114C5.5352 18.4845 5.37486 18.5015 5.22529 18.4587C5.07573 18.4159 4.94863 18.3167 4.8708 18.182L0.7764 10.5056C0.266667 9.5498 2.46187e-05 8.48323 0 7.4V2.9Z" fill="#0A0A0B"/>
<path fill-rule="evenodd" clip-rule="evenodd" d="M6.5998 12.5C6.5998 12.3409 6.66302 12.1883 6.77554 12.0757C6.88806 11.9632 7.04067 11.9 7.1998 11.9H10.1998C11.9502 11.9 13.629 12.5954 14.8667 13.8331C16.1045 15.0708 16.7998 16.7496 16.7998 18.5V20.9C16.7998 21.0591 16.7366 21.2117 16.6241 21.3243C16.5115 21.4368 16.3589 21.5 16.1998 21.5C16.0407 21.5 15.8881 21.4368 15.7755 21.3243C15.663 21.2117 15.5998 21.0591 15.5998 20.9V18.5C15.5998 17.0678 15.0309 15.6943 14.0182 14.6816C13.0055 13.6689 11.632 13.1 10.1998 13.1H7.1998C7.04067 13.1 6.88806 13.0368 6.77554 12.9243C6.66302 12.8117 6.5998 12.6591 6.5998 12.5ZM5.3998 17.3C5.55893 17.3 5.71155 17.3632 5.82407 17.4757C5.93659 17.5883 5.9998 17.7409 5.9998 17.9V20.9C5.9998 21.0591 5.93659 21.2117 5.82407 21.3243C5.71155 21.4368 5.55893 21.5 5.3998 21.5C5.24067 21.5 5.08806 21.4368 4.97554 21.3243C4.86302 21.2117 4.7998 21.0591 4.7998 20.9V17.9C4.7998 17.7409 4.86302 17.5883 4.97554 17.4757C5.08806 17.3632 5.24067 17.3 5.3998 17.3Z" fill="#0A0A0B"/>
</svg>
