<svg width="25" height="24" viewBox="0 0 25 24" fill="none" xmlns="http://www.w3.org/2000/svg">
<path d="M20.8066 17.657C20.9166 17.291 20.9766 16.902 20.9766 16.5V7.5C20.9766 6.43913 20.5551 5.42172 19.805 4.67157C19.0548 3.92143 18.0374 3.5 16.9766 3.5H7.97656C6.9157 3.5 5.89828 3.92143 5.14814 4.67157C4.39799 5.42172 3.97656 6.43913 3.97656 7.5V16.57C3.99492 17.6187 4.42443 18.6182 5.1726 19.3533C5.92076 20.0884 6.92771 20.5002 7.97656 20.5H16.9766L17.0936 20.498M20.8066 17.657L20.7186 17.553L18.2526 14.577C18.0655 14.3513 17.831 14.1694 17.5658 14.0443C17.3006 13.9193 17.0111 13.8541 16.7179 13.8533C16.4247 13.8525 16.1349 13.9162 15.8691 14.0399C15.6032 14.1636 15.3678 14.3442 15.1796 14.569L13.8676 16.135L13.6536 16.396M20.8066 17.657C20.564 18.4603 20.0749 19.166 19.4086 19.676C18.7422 20.1861 17.9323 20.4736 17.0936 20.498M13.6536 16.396L17.0006 20.392L17.0936 20.498M13.6536 16.396L10.4266 12.543C10.2388 12.319 10.0043 12.1388 9.73944 12.0152C9.47458 11.8916 9.18585 11.8275 8.89356 11.8275C8.60128 11.8275 8.31254 11.8916 8.04768 12.0152C7.78283 12.1388 7.54828 12.319 7.36056 12.543L4.15456 16.37L3.97756 16.571" stroke="#0A0A0B" stroke-width="1.5" stroke-linecap="round" stroke-linejoin="round"/>
<path d="M15.5664 10.4092C16.3948 10.4092 17.0664 9.73761 17.0664 8.90918C17.0664 8.08075 16.3948 7.40918 15.5664 7.40918C14.738 7.40918 14.0664 8.08075 14.0664 8.90918C14.0664 9.73761 14.738 10.4092 15.5664 10.4092Z" fill="#0A0A0B"/>
</svg>
