<svg width="25" height="24" viewBox="0 0 25 24" fill="none" xmlns="http://www.w3.org/2000/svg">
<path d="M15.5 15.135L14.3075 13.9425L13.25 15L15.5 17.25L19.25 13.5L18.1925 12.4425L15.5 15.135Z" fill="#0A0A0B"/>
<path d="M11.75 17.25H8.75C8.55109 17.25 8.36032 17.171 8.21967 17.0303C8.07902 16.8897 8 16.6989 8 16.5V7.5C8 7.30109 8.07902 7.11032 8.21967 6.96967C8.36032 6.82902 8.55109 6.75 8.75 6.75H16.25C16.4489 6.75 16.6397 6.82902 16.7803 6.96967C16.921 7.11032 17 7.30109 17 7.5V12H15.5V8.25H9.5V15.75H11.75V17.25Z" fill="#0A0A0B"/>
<path d="M12.5 0.75C12.3672 0.749933 12.2367 0.785132 12.122 0.852L3.122 6.102C3.00877 6.16808 2.91483 6.26268 2.84956 6.37638C2.78429 6.49008 2.74996 6.6189 2.75 6.75V17.25C2.74996 17.3811 2.78429 17.5099 2.84956 17.6236C2.91483 17.7373 3.00877 17.8319 3.122 17.898L12.122 23.148C12.2367 23.2149 12.3672 23.2502 12.5 23.2502C12.6328 23.2502 12.7633 23.2149 12.878 23.148L21.128 18.3353L20.372 17.04L12.5 21.6315L4.25 16.8195V7.18125L12.5 2.3685L20.75 7.1805V12.75H22.25V6.75C22.25 6.6189 22.2157 6.49008 22.1504 6.37638C22.0852 6.26268 21.9912 6.16808 21.878 6.102L12.878 0.852C12.7633 0.785132 12.6328 0.749933 12.5 0.75Z" fill="#0A0A0B"/>
</svg>
