<svg width="279" height="243" viewBox="0 0 279 243" fill="none" xmlns="http://www.w3.org/2000/svg">
<g clip-path="url(#clip0_98_2870)">
<path d="M177.951 54.4718H163.106V167.594C163.106 169.369 162.714 171.126 161.955 172.766C161.195 174.406 160.081 175.896 158.677 177.151C157.273 178.406 155.606 179.401 153.771 180.081C151.937 180.76 149.97 181.109 147.985 181.109H34.489V181.239C34.489 183.014 34.8801 184.771 35.64 186.411C36.3999 188.051 37.5137 189.541 38.9178 190.796C40.322 192.051 41.9889 193.046 43.8234 193.725C45.658 194.405 47.6243 194.754 49.61 194.754H177.95C179.936 194.754 181.902 194.405 183.737 193.725C185.572 193.046 187.238 192.051 188.643 190.796C190.047 189.541 191.161 188.051 191.92 186.411C192.68 184.771 193.071 183.014 193.071 181.239V67.9871C193.071 64.4026 191.478 60.965 188.643 58.4304C185.807 55.8957 181.961 54.4718 177.951 54.4718Z" fill="#F2F2F2"/>
<path d="M248.322 234.241C248.585 234.251 248.845 234.19 249.068 234.064C249.29 233.938 249.464 233.754 249.565 233.537C249.666 233.321 249.691 233.081 249.635 232.851C249.579 232.621 249.445 232.413 249.252 232.253L249.164 231.941C249.176 231.915 249.188 231.89 249.199 231.866C249.464 231.307 249.908 230.83 250.474 230.496C251.041 230.161 251.706 229.984 252.385 229.987C253.064 229.989 253.727 230.17 254.291 230.508C254.855 230.846 255.295 231.326 255.555 231.887C256.595 234.124 257.918 236.366 258.244 238.732C258.387 239.778 258.327 240.838 258.065 241.866C260.507 237.105 261.774 231.931 261.783 226.694C261.783 225.38 261.701 224.067 261.538 222.761C261.403 221.691 261.215 220.628 260.976 219.572C259.667 213.846 256.857 208.479 252.777 203.911C250.803 202.948 249.206 201.467 248.202 199.668C247.838 199.021 247.581 198.331 247.438 197.618C247.661 197.645 248.278 194.612 248.11 194.426C248.421 194.005 248.976 193.796 249.315 193.385C251.001 191.342 253.325 191.698 254.537 194.475C257.128 195.644 257.153 197.582 255.564 199.446C254.552 200.632 254.413 202.237 253.526 203.507C253.617 203.611 253.712 203.712 253.803 203.817C255.472 205.735 256.927 207.795 258.146 209.966C257.85 207.533 258.204 205.072 259.179 202.785C260.167 200.654 262.02 198.859 263.651 197.017C264.083 196.522 264.669 196.152 265.335 195.955C266.002 195.758 266.719 195.741 267.395 195.908C268.072 196.075 268.678 196.417 269.137 196.892C269.597 197.367 269.888 197.952 269.975 198.575C269.978 198.602 269.981 198.629 269.984 198.656C269.742 198.779 269.505 198.908 269.273 199.045C268.981 199.22 268.755 199.468 268.625 199.759C268.494 200.05 268.465 200.369 268.541 200.675C268.616 200.981 268.794 201.26 269.05 201.474C269.306 201.688 269.628 201.829 269.975 201.876L270.01 201.881C269.924 202.662 269.771 203.435 269.554 204.195C271.647 211.43 267.128 214.065 260.676 214.183C260.534 214.249 260.395 214.314 260.252 214.376C261.478 217.479 262.246 220.712 262.538 223.992C262.704 225.927 262.694 227.871 262.509 229.805L262.52 229.736C262.988 227.586 264.271 225.646 266.154 224.243C268.95 222.19 272.9 221.434 275.917 219.784C276.238 219.6 276.611 219.502 276.991 219.501C277.372 219.5 277.746 219.596 278.067 219.779C278.389 219.962 278.645 220.223 278.807 220.531C278.968 220.84 279.027 221.183 278.977 221.521L278.964 221.593C278.515 221.756 278.077 221.945 277.653 222.157C277.411 222.28 277.174 222.409 276.942 222.546C276.65 222.721 276.424 222.969 276.293 223.26C276.163 223.551 276.133 223.87 276.209 224.176C276.285 224.482 276.463 224.761 276.719 224.975C276.974 225.189 277.297 225.33 277.643 225.377L277.679 225.382C277.704 225.386 277.726 225.389 277.752 225.392C276.984 227.032 275.905 228.541 274.564 229.854C273.255 236.17 267.634 236.769 261.622 234.93H261.618C260.959 237.492 260.003 239.986 258.766 242.372H248.578C248.541 242.27 248.508 242.166 248.475 242.065C249.418 242.118 250.365 242.067 251.295 241.915C250.539 241.086 249.783 240.25 249.027 239.421C249.01 239.405 248.994 239.389 248.979 239.372C248.596 238.948 248.209 238.527 247.825 238.102L247.825 238.102C247.805 236.801 247.972 235.503 248.322 234.241Z" fill="#F2F2F2"/>
<path d="M136.104 39.084C136.476 39.5878 136.966 40.0133 137.54 40.3311C138.114 40.6489 138.759 40.8515 139.429 40.9249C140.099 40.9982 140.779 40.9405 141.422 40.7558C142.065 40.5711 142.655 40.2638 143.152 39.8551L164.335 48.397L168.419 43.741L143.177 33.7601C142.345 33.0636 141.256 32.6641 140.117 32.6372C138.978 32.6103 137.867 32.9579 136.995 33.6142C136.123 34.2704 135.551 35.1897 135.387 36.1978C135.223 37.206 135.478 38.2329 136.104 39.084Z" fill="#A0616A"/>
<path d="M227.01 44.4104L229.111 55.0513C229.209 55.5478 229.19 56.057 229.055 56.5464C228.92 57.0358 228.671 57.4946 228.326 57.8932C227.981 58.2918 227.546 58.6214 227.05 58.861C226.554 59.1006 226.007 59.2447 225.445 59.2843L189.746 61.7934L147.785 45.0077L152.796 36.504L189.223 46.8143L227.01 44.4104Z" fill="#96B23C"/>
<path d="M143.462 36.7843H15.121C6.76988 36.7843 0 42.8353 0 50.2996V163.551C0 171.016 6.76988 177.067 15.121 177.067H143.462C151.813 177.067 158.582 171.016 158.582 163.551V50.2996C158.582 42.8353 151.813 36.7843 143.462 36.7843Z" fill="#F2F2F2"/>
<path d="M15.1211 39.5637C13.5437 39.5637 11.9818 39.8414 10.5245 40.3809C9.06724 40.9205 7.74312 41.7113 6.62777 42.7082C5.51242 43.7051 4.62766 44.8886 4.02404 46.1912C3.42041 47.4937 3.10974 48.8898 3.10974 50.2996V163.551C3.10974 166.399 4.37521 169.129 6.62777 171.143C8.88033 173.156 11.9355 174.287 15.1211 174.287H97.0311C104.706 174.287 112.305 172.936 119.396 170.311C126.486 167.686 132.929 163.838 138.356 158.988C143.782 154.137 148.087 148.379 151.024 142.041C153.961 135.704 155.473 128.911 155.473 122.051V50.2996C155.473 48.8898 155.162 47.4937 154.558 46.1912C153.955 44.8886 153.07 43.7051 151.955 42.7082C150.839 41.7113 149.515 40.9205 148.058 40.3809C146.601 39.8414 145.039 39.5637 143.461 39.5637H15.1211Z" fill="white"/>
<path d="M115.168 73.9337H43.1335C42.4725 73.9337 41.8386 73.699 41.3712 73.2813C40.9038 72.8635 40.6412 72.2969 40.6412 71.7061C40.6412 71.1153 40.9038 70.5487 41.3712 70.1309C41.8386 69.7132 42.4725 69.4785 43.1335 69.4785H115.168C115.829 69.4785 116.463 69.7132 116.931 70.1309C117.398 70.5487 117.661 71.1153 117.661 71.7061C117.661 72.2969 117.398 72.8635 116.931 73.2813C116.463 73.699 115.829 73.9337 115.168 73.9337Z" fill="#F2F2F2"/>
<path d="M115.168 121.437H43.1335C42.4725 121.437 41.8386 121.203 41.3712 120.785C40.9038 120.367 40.6412 119.8 40.6412 119.21C40.6412 118.619 40.9038 118.052 41.3712 117.634C41.8386 117.217 42.4725 116.982 43.1335 116.982H115.168C115.829 116.982 116.463 117.217 116.931 117.634C117.398 118.052 117.661 118.619 117.661 119.21C117.661 119.8 117.398 120.367 116.931 120.785C116.463 121.203 115.829 121.437 115.168 121.437Z" fill="#F2F2F2"/>
<path d="M144.42 97.7011H13.8817C13.2207 97.7011 12.5868 97.4664 12.1194 97.0486C11.652 96.6309 11.3894 96.0642 11.3894 95.4734C11.3894 94.8826 11.652 94.316 12.1194 93.8983C12.5868 93.4805 13.2207 93.2458 13.8817 93.2458H144.42C145.081 93.2458 145.715 93.4805 146.182 93.8983C146.65 94.316 146.912 94.8826 146.912 95.4734C146.912 96.0642 146.65 96.6309 146.182 97.0486C145.715 97.4664 145.081 97.7011 144.42 97.7011Z" fill="#F2F2F2"/>
<path d="M222.5 91.3114L209.496 116.074L259.52 111.545L249.078 87.7739L222.5 91.3114Z" fill="#A0616A"/>
<path d="M234.13 233.637L229.387 233.601L227.288 216.868L234.287 216.921L234.13 233.637Z" fill="#A0616A"/>
<path d="M218.938 240.378C218.934 240.88 219.153 241.364 219.547 241.722C219.941 242.081 220.478 242.285 221.04 242.29L230.47 242.36L232.121 239.369L232.727 242.375L236.286 242.404L235.387 231.682L234.149 231.608L229.1 231.297L227.471 231.2L227.442 234.233L219.867 238.826C219.583 238.998 219.351 239.229 219.189 239.499C219.027 239.77 218.941 240.071 218.938 240.378Z" fill="#2F2E41"/>
<path d="M181.642 233.656L177.12 232.376L180.613 215.83L187.287 217.719L181.642 233.656Z" fill="#A0616A"/>
<path d="M164.904 236.11C164.735 236.589 164.786 237.109 165.044 237.555C165.303 238.001 165.75 238.337 166.285 238.489L175.276 241.033L177.837 238.608L177.429 241.64L180.82 242.602L183.486 232.118L182.327 231.722L177.603 230.099L176.078 229.578L175.053 232.47L166.303 234.87C165.975 234.96 165.676 235.12 165.433 235.336C165.189 235.552 165.008 235.817 164.904 236.11Z" fill="#2F2E41"/>
<path d="M257.242 104.582L211.758 112.031C211.758 112.031 204.462 116.909 206.414 118.656C208.365 120.403 208.668 120.132 207.386 121.278C206.104 122.424 203.332 123.956 203.304 124.959C203.277 125.961 182.923 170.938 182.923 170.938C182.923 170.938 185.184 169.928 183.488 171.444C181.792 172.96 181.792 174.212 181.792 174.212L173.876 221.979L186.732 222.656L199.319 179.108L227.396 138.424C227.396 138.424 230.182 174.703 230.299 177.116C230.416 179.529 232.112 176.497 230.416 179.529C228.72 182.561 227.589 180.54 228.72 182.561C229.85 184.583 224.646 225.736 224.646 225.736H236.38L261.545 140.437C261.545 140.437 270.499 116.05 257.242 104.582Z" fill="#2F2E41"/>
<path d="M243.843 36.3526L225.623 34.6605L220.903 40.1382L215.404 42.7561C213.077 43.8639 211.156 45.5475 209.871 47.6053C208.586 49.6632 207.991 52.0084 208.158 54.3603L214.585 87.774C214.585 87.774 209.156 98.6994 212.889 101.419C216.621 104.138 210.003 110.872 217.977 107.483C225.951 104.093 260.382 107.988 260.382 107.988L253.032 89.2901L258.522 70.9165L259.127 55.5106C259.24 52.6317 258.284 49.8004 256.408 47.4578C254.533 45.1152 251.843 43.3931 248.758 42.5599L247.99 42.3525L243.843 36.3526Z" fill="#96B23C"/>
<path d="M268.926 23.8681C269.046 28.4583 267.127 32.9029 264.369 36.8068C263.55 34.5277 262.077 32.4535 260.542 30.4762C261.316 34.7537 260.491 39.14 258.195 42.9563C258.114 43.008 258.03 43.0561 257.944 43.1003C255.697 44.3086 252.847 44.798 250.416 43.9253C255.439 39.0856 256.079 31.067 251.867 25.6386C250.675 24.0983 249.133 22.736 248.395 20.983C247.229 18.1861 248.349 15.1066 249.056 12.1906C249.718 9.4766 249.833 6.24695 247.796 4.25794C248.014 3.97998 248.31 3.75873 248.655 3.61685C249 3.47497 249.38 3.41756 249.758 3.45052C251.014 3.60909 251.928 4.58487 252.511 5.58986C253.093 6.59481 253.477 7.70865 254.288 8.57669C255.791 10.2014 258.35 10.5855 260.507 11.4418C265.73 13.5211 268.801 18.7605 268.926 23.8681Z" fill="#2F2E41"/>
<path d="M134.366 242.399C134.366 242.478 134.383 242.556 134.417 242.629C134.451 242.702 134.5 242.769 134.563 242.824C134.625 242.88 134.7 242.925 134.781 242.955C134.863 242.985 134.951 243 135.039 243H278.248C278.426 243 278.598 242.937 278.724 242.824C278.85 242.711 278.921 242.558 278.921 242.399C278.921 242.239 278.85 242.086 278.724 241.973C278.598 241.861 278.426 241.797 278.248 241.797H135.039C134.951 241.797 134.863 241.812 134.781 241.843C134.7 241.873 134.625 241.917 134.563 241.973C134.5 242.029 134.451 242.095 134.417 242.168C134.383 242.241 134.366 242.32 134.366 242.399Z" fill="#CCCCCC"/>
<path d="M270.054 130.255C272.864 130.255 275.142 128.218 275.142 125.706C275.142 123.195 272.864 121.158 270.054 121.158C267.244 121.158 264.965 123.195 264.965 125.706C264.965 128.218 267.244 130.255 270.054 130.255Z" fill="#96B23C"/>
<path d="M224.962 21.2436C225.261 20.3099 223.204 26.0174 224.196 26.1205C228.718 26.5841 234.924 28.9975 238.073 30.1235C238.215 30.1087 238.357 30.094 238.494 30.0756C238.832 30.0425 239.162 29.9947 239.487 29.9395C246.82 28.6995 249.639 18.6321 249.639 18.5401C249.639 18.0875 248.424 5.65703 246.51 5.47308C246.007 5.42432 245.501 5.39975 244.996 5.39949H240.245C239.262 5.21015 238.265 5.08107 237.263 5.01314H237.254C227.691 4.36185 220.15 9.57208 220.854 15.912C220.859 15.9193 220.867 15.9267 220.871 15.9341C221.076 16.2063 221.255 16.4639 221.413 16.7104C221.568 16.9423 221.697 17.163 221.81 17.3728C222.681 18.9918 220.441 21.029 221.926 21.4092C223.902 21.915 216.729 38.5376 224.551 38.5376C220.746 39.5044 224.139 23.8193 224.962 21.2436Z" fill="#2F2E41"/>
<path d="M233.5 30.9971C239.712 30.9971 244.748 26.496 244.748 20.9437C244.748 15.3914 239.712 10.8904 233.5 10.8904C227.288 10.8904 222.252 15.3914 222.252 20.9437C222.252 26.496 227.288 30.9971 233.5 30.9971Z" fill="#A0616A"/>
<path d="M220.854 16.4602C221.042 16.5485 221.226 16.6294 221.413 16.7104C221.609 16.795 221.805 16.8797 222.001 16.9569C225.768 18.484 228.833 18.6532 230.694 16.4602C230.743 15.3063 231.033 14.1708 231.549 13.1118C231.458 14.2952 231.807 15.4723 232.541 16.4602H236.287C240.145 18.7489 242.126 18.988 239.448 26.5017C238.702 28.5954 235.733 40.7784 236.901 42.5851C237.239 42.5519 240.833 29.2078 241.158 29.1526C248.491 27.9126 253.15 17.1152 252.553 16.5044C252.556 14.7674 252.109 13.0534 251.248 11.4965C250.158 9.52397 248.458 7.87173 246.351 6.73514C245.095 6.19072 243.785 5.75099 242.439 5.42153C242.405 5.41416 242.376 5.4068 242.343 5.39945C241.93 5.3001 241.509 5.20811 241.087 5.13084C240.217 4.96659 239.337 4.84742 238.451 4.77393C238.389 4.77024 238.326 4.76656 238.268 4.76656C237.914 4.7673 237.567 4.85241 237.263 5.0131C237.259 5.0131 237.259 5.01677 237.254 5.01677C237.037 5.13043 236.847 5.28179 236.695 5.46198C236.429 5.76517 236.285 6.13988 236.287 6.52538H232.116C231.962 6.52538 231.807 6.52906 231.653 6.53641C228.869 6.62144 226.221 7.63188 224.227 9.37001C222.233 11.1081 221.036 13.4488 220.871 15.934C220.859 16.1106 220.854 16.2836 220.854 16.4602Z" fill="#2F2E41"/>
<path d="M245.447 13.2464C249.539 13.2464 252.857 10.2811 252.857 6.6232C252.857 2.96531 249.539 0 245.447 0C241.355 0 238.037 2.96531 238.037 6.6232C238.037 10.2811 241.355 13.2464 245.447 13.2464Z" fill="#2F2E41"/>
<path d="M270.111 127.582C270.473 127.072 270.706 126.498 270.795 125.9C270.884 125.302 270.827 124.693 270.627 124.117C270.427 123.54 270.09 123.009 269.638 122.561C269.186 122.113 268.63 121.757 268.01 121.519L268.046 100.749L261.621 99.3271L261.779 123.997C261.409 124.961 261.448 126.012 261.887 126.952C262.327 127.892 263.137 128.655 264.164 129.097C265.191 129.539 266.363 129.629 267.46 129.35C268.556 129.07 269.499 128.441 270.111 127.582Z" fill="#A0616A"/>
<path d="M238.293 51.2822L248.292 45.2086C248.758 44.9252 249.286 44.7322 249.84 44.6419C250.395 44.5516 250.965 44.5659 251.513 44.6841C252.062 44.8022 252.576 45.0216 253.024 45.328C253.472 45.6344 253.843 46.0211 254.114 46.4633L271.304 74.5403L271.37 115.631L260.637 115.03L256.232 81.1055L238.293 51.2822Z" fill="#96B23C"/>
<path d="M161.502 144.47H54.6428C52.3186 144.47 50.0895 145.295 48.446 146.764C46.8025 148.233 45.8792 150.226 45.8792 152.303C45.8792 154.381 46.8025 156.373 48.446 157.842C50.0895 159.311 52.3186 160.136 54.6428 160.136H161.502C163.827 160.136 166.056 159.311 167.699 157.842C169.343 156.373 170.266 154.381 170.266 152.303C170.266 150.226 169.343 148.233 167.699 146.764C166.056 145.295 163.827 144.47 161.502 144.47Z" fill="white"/>
<path d="M161.502 160.642H54.6428C52.1686 160.642 49.7958 159.763 48.0462 158.199C46.2967 156.636 45.3138 154.515 45.3138 152.303C45.3138 150.092 46.2967 147.971 48.0462 146.407C49.7958 144.843 52.1686 143.965 54.6428 143.965H161.502C163.977 143.965 166.349 144.843 168.099 146.407C169.848 147.971 170.831 150.092 170.831 152.303C170.831 154.515 169.848 156.636 168.099 158.199C166.349 159.763 163.977 160.642 161.502 160.642ZM54.6428 144.976C52.4685 144.976 50.3833 145.748 48.8458 147.122C47.3084 148.496 46.4446 150.36 46.4446 152.303C46.4446 154.247 47.3084 156.11 48.8458 157.485C50.3833 158.859 52.4685 159.631 54.6428 159.631H161.502C163.677 159.631 165.762 158.859 167.299 157.485C168.837 156.11 169.701 154.247 169.701 152.303C169.701 150.36 168.837 148.496 167.299 147.122C165.762 145.748 163.677 144.976 161.502 144.976H54.6428Z" fill="#96B23C"/>
<path d="M167.803 178.654H120.646C119.985 178.654 119.351 178.419 118.884 178.001C118.416 177.584 118.154 177.017 118.154 176.426C118.154 175.836 118.416 175.269 118.884 174.851C119.351 174.433 119.985 174.199 120.646 174.199H167.803C168.464 174.199 169.098 174.433 169.566 174.851C170.033 175.269 170.296 175.836 170.296 176.426C170.296 177.017 170.033 177.584 169.566 178.001C169.098 178.419 168.464 178.654 167.803 178.654Z" fill="#96B23C"/>
</g>
<defs>
<clipPath id="clip0_98_2870">
<rect width="279" height="243" fill="white"/>
</clipPath>
</defs>
</svg>
