<svg width="223" height="34" viewBox="0 0 223 34" fill="none" xmlns="http://www.w3.org/2000/svg">
<path d="M42.2095 0.875977L33.8159 33H28.0591L22.6978 13.752C22.5659 13.2832 22.4194 12.7266 22.2583 12.082C22.0972 11.4375 21.936 10.7783 21.7749 10.1045C21.6284 9.43066 21.4966 8.81543 21.3794 8.25879C21.2769 7.6875 21.2036 7.24805 21.1597 6.94043C21.1304 7.24805 21.0645 7.68018 20.9619 8.23682C20.8594 8.79346 20.7349 9.40869 20.5884 10.0825C20.4565 10.7417 20.3101 11.4009 20.1489 12.0601C19.9878 12.7046 19.8413 13.2759 19.7095 13.7739L14.436 33H8.70117L0.32959 0.875977H5.625L10.2612 19.7065C10.4077 20.3071 10.5542 20.959 10.7007 21.6621C10.8618 22.3506 11.0083 23.0464 11.1401 23.7495C11.2866 24.4526 11.4185 25.1411 11.5356 25.8149C11.6528 26.4741 11.748 27.0747 11.8213 27.6167C11.8945 27.0601 11.9897 26.4448 12.1069 25.771C12.2241 25.0825 12.3486 24.3867 12.4805 23.6836C12.627 22.9658 12.7734 22.2773 12.9199 21.6182C13.0811 20.959 13.2422 20.3657 13.4033 19.8384L18.6328 0.875977H23.7744L29.1138 19.9043C29.2749 20.4463 29.4287 21.0542 29.5752 21.728C29.7363 22.4019 29.8901 23.0903 30.0366 23.7935C30.1831 24.4966 30.3149 25.1777 30.4321 25.8369C30.5493 26.4961 30.6445 27.0894 30.7178 27.6167C30.8203 26.8989 30.9521 26.0786 31.1133 25.1558C31.2744 24.2329 31.4575 23.2954 31.6626 22.3433C31.8677 21.3911 32.0728 20.5122 32.2778 19.7065L36.8921 0.875977H42.2095ZM65.4512 33H47.2578V0.875977H65.4512V5.31445H52.5312V14.0376H64.6382V18.4541H52.5312V28.5396H65.4512V33ZM72.8945 33V0.875977H78.168V28.5176H91.813V33H72.8945ZM111.561 4.89697C110.023 4.89697 108.646 5.17529 107.43 5.73193C106.229 6.28857 105.211 7.09424 104.376 8.14893C103.541 9.18896 102.904 10.4561 102.464 11.9502C102.025 13.4297 101.805 15.0996 101.805 16.96C101.805 19.4502 102.157 21.5962 102.86 23.3979C103.563 25.1851 104.632 26.562 106.068 27.5288C107.503 28.481 109.32 28.957 111.517 28.957C112.879 28.957 114.205 28.8252 115.494 28.5615C116.783 28.2979 118.116 27.939 119.493 27.4849V31.9673C118.189 32.48 116.871 32.8535 115.538 33.0879C114.205 33.3223 112.667 33.4395 110.924 33.4395C107.643 33.4395 104.918 32.7583 102.75 31.396C100.597 30.0337 98.9854 28.1147 97.916 25.6392C96.8613 23.1636 96.334 20.2632 96.334 16.938C96.334 14.5063 96.6709 12.2798 97.3447 10.2583C98.0186 8.23682 99 6.49365 100.289 5.02881C101.578 3.54932 103.167 2.41406 105.057 1.62305C106.961 0.817383 109.137 0.414551 111.583 0.414551C113.194 0.414551 114.776 0.597656 116.329 0.963867C117.896 1.31543 119.347 1.8208 120.68 2.47998L118.834 6.83057C117.721 6.30322 116.556 5.84912 115.34 5.46826C114.125 5.0874 112.865 4.89697 111.561 4.89697ZM155.413 16.894C155.413 19.3696 155.098 21.6255 154.468 23.6616C153.853 25.6831 152.923 27.4263 151.678 28.8911C150.433 30.3413 148.873 31.4619 146.998 32.2529C145.123 33.0439 142.925 33.4395 140.406 33.4395C137.842 33.4395 135.616 33.0439 133.726 32.2529C131.851 31.4619 130.291 30.334 129.046 28.8691C127.815 27.4043 126.893 25.6538 126.277 23.6177C125.662 21.5815 125.354 19.3257 125.354 16.8501C125.354 13.5396 125.896 10.6538 126.98 8.19287C128.079 5.71729 129.742 3.79834 131.968 2.43604C134.209 1.05908 137.037 0.370605 140.45 0.370605C143.79 0.370605 146.565 1.05176 148.777 2.41406C150.989 3.77637 152.645 5.69531 153.743 8.1709C154.856 10.6318 155.413 13.5396 155.413 16.894ZM130.892 16.894C130.892 19.3696 131.229 21.5156 131.902 23.332C132.576 25.1338 133.609 26.5254 135 27.5068C136.407 28.4736 138.208 28.957 140.406 28.957C142.618 28.957 144.419 28.4736 145.811 27.5068C147.203 26.5254 148.228 25.1338 148.887 23.332C149.546 21.5156 149.876 19.3696 149.876 16.894C149.876 13.1294 149.122 10.1851 147.613 8.06104C146.119 5.92236 143.731 4.85303 140.45 4.85303C138.252 4.85303 136.443 5.33643 135.022 6.30322C133.616 7.27002 132.576 8.6543 131.902 10.4561C131.229 12.2432 130.892 14.3892 130.892 16.894ZM176.677 33L167.427 6.17139H167.229C167.273 6.77197 167.324 7.59229 167.383 8.63232C167.441 9.67236 167.493 10.7856 167.537 11.9722C167.581 13.1587 167.603 14.2939 167.603 15.3779V33H162.812V0.875977H170.217L179.116 26.5181H179.248L188.455 0.875977H195.837V33H190.806V15.1143C190.806 14.1328 190.82 13.0708 190.85 11.9282C190.894 10.7856 190.938 9.70166 190.981 8.67627C191.04 7.65088 191.084 6.83057 191.113 6.21533H190.938L181.335 33H176.677ZM222.99 33H204.797V0.875977H222.99V5.31445H210.07V14.0376H222.177V18.4541H210.07V28.5396H222.99V33Z" fill="white"/>
</svg>
